<?xml version="1.0" encoding="UTF-8"?>
<svg version="1.1" xmlns="http://www.w3.org/2000/svg" width="357" height="250">
<path d="M0 0 C1.26854588 0.7841484 2.53817231 1.56655017 3.80859375 2.34765625 C11.37387263 7.01164845 18.7953791 11.79111896 26 17 C27.41901222 18.01338306 28.83831068 19.02636537 30.2578125 20.0390625 C38.34481192 25.82464334 46.33017777 31.66578475 54 38 C54.83015625 38.66902344 55.6603125 39.33804688 56.515625 40.02734375 C69.09461609 50.19720059 81.26921435 60.86289985 93 72 C93.78334717 72.74032471 93.78334717 72.74032471 94.58251953 73.49560547 C113.07949359 91.08805402 113.07949359 91.08805402 114.46484375 98.48046875 C111.22239289 116.05509735 85.09686357 137.20094257 71.81640625 147.7421875 C69.3502297 149.71923333 66.95377561 151.75700137 64.56835938 153.83007812 C56.47760987 160.83265708 47.89505973 167.12313371 39.22607422 173.38671875 C37.27840377 174.79823513 35.34200198 176.2232118 33.41015625 177.65625 C20.04987261 187.49166775 5.7680854 196.44042538 -9 204 C-10.45212891 204.76376953 -10.45212891 204.76376953 -11.93359375 205.54296875 C-35.18120735 217.53696048 -59.80973078 220.6949326 -85 213 C-90.52354042 211.05445654 -95.76325273 208.60977 -101 206 C-101.96035156 205.52691406 -102.92070312 205.05382812 -103.91015625 204.56640625 C-127.48962292 192.30786172 -149.28957466 174.73448741 -169.89648438 158.09350586 C-173.09278699 155.51349787 -176.30987091 152.9898698 -179.625 150.5625 C-182.71112604 148.2808769 -185.31319584 145.75077568 -188 143 C-189.39168325 141.7661365 -190.78823108 140.53775421 -192.1875 139.3125 C-197.44548619 134.61217901 -202.44520307 129.66787621 -207.4375 124.6875 C-208.23115967 123.89835205 -209.02481934 123.1092041 -209.8425293 122.29614258 C-210.59445557 121.54228271 -211.34638184 120.78842285 -212.12109375 120.01171875 C-212.7958374 119.33584717 -213.47058105 118.65997559 -214.16577148 117.96362305 C-219 112.78836683 -219 112.78836683 -219 110 C-219.99 109.67 -220.98 109.34 -222 109 C-225.30600147 105.12725542 -226.49777571 102.2051943 -226.36791992 97.08911133 C-225.70759959 93.33970119 -223.51112345 90.93315796 -221.0625 88.125 C-220.31577026 87.22599976 -220.31577026 87.22599976 -219.55395508 86.30883789 C-218.05670641 84.52021207 -216.53293438 82.75806831 -215 81 C-214.16726562 80.02675781 -213.33453125 79.05351563 -212.4765625 78.05078125 C-208.57692194 73.59880252 -204.62500767 69.67898337 -200 66 C-197.79698707 63.85347458 -195.6406189 61.67273436 -193.51953125 59.4453125 C-169.77305468 34.9655718 -138.04403685 15.52719225 -108.92626953 -1.84082031 C-107.19744981 -2.88117976 -105.48614632 -3.95051662 -103.77734375 -5.0234375 C-69.6804886 -26.0414182 -32.67900252 -20.83948172 0 0 Z " fill="#E0E1E5" transform="translate(231,24)"/>
<path d="M0 0 C1.5017981 -0.01522705 1.5017981 -0.01522705 3.03393555 -0.03076172 C10.04019872 0.05091379 16.21408439 1.2910596 22.875 3.4375 C20.7605862 3.98502189 18.72991614 4.45710593 16.5625 4.75 C11.56959209 6.02725551 7.87877805 8.27094713 4.5625 12.125 C1.07500195 15.12587042 -1.43129443 15.03429602 -5.91796875 15.1015625 C-7.01044922 15.26785156 -7.01044922 15.26785156 -8.125 15.4375 C-8.785 16.4275 -9.445 17.4175 -10.125 18.4375 C-12.11672182 19.12850553 -14.11661804 19.79652703 -16.125 20.4375 C-16.455 21.0975 -16.785 21.7575 -17.125 22.4375 C-18.115 22.4375 -19.105 22.4375 -20.125 22.4375 C-19.444375 22.93636719 -18.76375 23.43523438 -18.0625 23.94921875 C-9.89679045 29.99749032 -2.01667103 36.35538807 5.84912109 42.78662109 C13.8919179 49.34065724 22.02516156 55.78328923 30.1875 62.1875 C30.76725586 62.64310303 31.34701172 63.09870605 31.94433594 63.56811523 C34.52130999 65.59293318 37.10135038 67.61299218 39.69140625 69.62109375 C50.20305773 77.85388338 57.5525012 85.4700036 61.875 98.4375 C62.51088013 106.36154466 61.90742723 114.02335454 58.875 121.4375 C57.885 121.9325 57.885 121.9325 56.875 122.4375 C56.89071045 121.46925293 56.89071045 121.46925293 56.90673828 120.48144531 C56.94837272 117.55016998 56.97434975 114.61895696 57 111.6875 C57.02513672 110.16382813 57.02513672 110.16382813 57.05078125 108.609375 C57.06044922 107.13984375 57.06044922 107.13984375 57.0703125 105.640625 C57.08602295 104.28952637 57.08602295 104.28952637 57.10205078 102.91113281 C56.85926048 100.26602384 56.13640929 98.74438546 54.875 96.4375 C54.49209538 94.44639599 54.14895385 92.44649487 53.875 90.4375 C54.535 90.4375 55.195 90.4375 55.875 90.4375 C54.946875 88.7359375 54.946875 88.7359375 54 87 C53.47792969 86.04287109 53.47792969 86.04287109 52.9453125 85.06640625 C51.96089976 83.27131685 51.96089976 83.27131685 49.875 82.4375 C49.545 83.0975 49.215 83.7575 48.875 84.4375 C47.225 84.1075 45.575 83.7775 43.875 83.4375 C44.205 84.4275 44.535 85.4175 44.875 86.4375 C43.0625 89.625 43.0625 89.625 40.875 92.4375 C40.215 92.4375 39.555 92.4375 38.875 92.4375 C37.70610347 94.09662638 37.70610347 94.09662638 36.5 96.25 C30.04932889 106.20647062 19.8752219 113.37515485 10.58203125 120.55078125 C6.60133049 123.6307939 2.70792062 126.81330363 -1.1875 130 C-3.19578481 131.63257381 -5.20590401 133.26284436 -7.21728516 134.89160156 C-8.4478741 135.88879751 -9.67684055 136.88800063 -10.90380859 137.88964844 C-29.2245632 152.78807557 -29.2245632 152.78807557 -36.63671875 152.2578125 C-51.71690352 147.28632302 -65.28406118 134.21810227 -77.12109375 124.0078125 C-79.87194682 121.65402665 -82.67080476 119.38335614 -85.5 117.125 C-90.22838203 113.27664181 -94.7236576 109.21114134 -99.1875 105.0625 C-99.84347168 104.45494873 -100.49944336 103.84739746 -101.17529297 103.22143555 C-102.09592529 102.35772339 -102.09592529 102.35772339 -103.03515625 101.4765625 C-103.58308838 100.96303223 -104.13102051 100.44950195 -104.69555664 99.92041016 C-106.125 98.4375 -106.125 98.4375 -108.125 95.4375 C-108.785 96.4275 -109.445 97.4175 -110.125 98.4375 C-110.785 98.4375 -111.445 98.4375 -112.125 98.4375 C-112.351875 99.015 -112.57875 99.5925 -112.8125 100.1875 C-114.57469744 103.20840989 -116.09440001 104.65866957 -119.125 106.4375 C-121.86113023 106.37973142 -124.4134066 105.88202351 -127.125 105.4375 C-128.115 106.4275 -128.115 106.4275 -129.125 107.4375 C-128.135 108.4275 -127.145 109.4175 -126.125 110.4375 C-127.115 110.4375 -128.105 110.4375 -129.125 110.4375 C-129.125 111.0975 -129.125 111.7575 -129.125 112.4375 C-129.785 112.4375 -130.445 112.4375 -131.125 112.4375 C-134.13173182 105.1085912 -133.98433759 98.06240024 -131.21875 90.6875 C-125.1831274 78.27136207 -112.72495137 69.98276925 -102.02197266 61.87988281 C-92.49691494 54.63740649 -83.07658903 47.26077482 -73.8125 39.6875 C-67.59412191 34.60463204 -61.2961635 29.65732545 -54.89990234 24.79882812 C-52.89593164 23.26180741 -50.91076617 21.70208074 -48.92578125 20.140625 C-33.6009085 8.13860461 -33.6009085 8.13860461 -25.125 4.4375 C-24.22910156 4.02886719 -23.33320313 3.62023438 -22.41015625 3.19921875 C-14.97858916 0.35744999 -7.89443218 0.05682492 0 0 Z " fill="#151617" transform="translate(211.125,38.5625)"/>
<path d="M0 0 C3.07552216 4.21460444 3.08099314 6.97517154 2.875 12.125 C2.68133441 15.13181749 2.68133441 15.13181749 5 17 C5.48614753 20.85404689 5.37041774 24.74382456 5.375 28.625 C5.39949219 29.69363281 5.42398437 30.76226562 5.44921875 31.86328125 C5.47454827 38.72758202 4.59667792 43.12874315 1 49 C1.66 49.33 2.32 49.66 3 50 C2.2575 51.6396875 2.2575 51.6396875 1.5 53.3125 C-0.18839906 56.79966245 -0.18839906 56.79966245 0 60 C-1.04932994 63.35785582 -1.96834033 63.98227058 -5.125 65.75 C-6.07375 66.1625 -7.0225 66.575 -8 67 C-8 67.66 -8 68.32 -8 69 C-8.66 69 -9.32 69 -10 69 C-10.33 69.99 -10.66 70.98 -11 72 C-12.29944744 73.69321939 -13.62926214 75.36395804 -15 77 C-14.67 77.66 -14.34 78.32 -14 79 C-13.443125 78.690625 -12.88625 78.38125 -12.3125 78.0625 C-9.87459567 76.94238179 -7.63775814 76.43962636 -5 76 C-5 75.34 -5 74.68 -5 74 C-4.360625 73.71125 -3.72125 73.4225 -3.0625 73.125 C-0.84793921 72.17176549 -0.84793921 72.17176549 0 70 C1.32 70 2.64 70 4 70 C4 69.01 4 68.02 4 67 C5.32 66.34 6.64 65.68 8 65 C8 65.66 8 66.32 8 67 C14.45427338 62.06965228 20.76438716 56.96851419 27.0559082 51.83349609 C30.73801005 48.82968752 34.44233896 45.86264212 38.1875 42.9375 C46.96898043 35.91818956 55.03343253 28.04358298 63 20.125 C63.52762939 19.60204346 64.05525879 19.07908691 64.59887695 18.5402832 C67.94525261 15.17998885 71.01053779 11.68187442 74 8 C74.33 8.66 74.66 9.32 75 10 C72.93595929 15.18656383 69.71512621 19.00653782 66.0625 23.125 C65.48838379 23.77807129 64.91426758 24.43114258 64.32275391 25.10400391 C56.40853975 34.02133657 48.17094612 42.31710465 38.81640625 49.7421875 C36.3502297 51.71923333 33.95377561 53.75700137 31.56835938 55.83007812 C23.47760987 62.83265708 14.89505973 69.12313371 6.22607422 75.38671875 C4.27840377 76.79823513 2.34200198 78.2232118 0.41015625 79.65625 C-12.95012739 89.49166775 -27.2319146 98.44042538 -42 106 C-42.96808594 106.50917969 -43.93617188 107.01835937 -44.93359375 107.54296875 C-68.18120735 119.53696048 -92.80973078 122.6949326 -118 115 C-123.52354042 113.05445654 -128.76325273 110.60977 -134 108 C-134.96035156 107.52691406 -135.92070312 107.05382812 -136.91015625 106.56640625 C-160.48962292 94.30786172 -182.28957466 76.73448741 -202.89648438 60.09350586 C-206.09278699 57.51349787 -209.30987091 54.9898698 -212.625 52.5625 C-215.71112604 50.2808769 -218.31319584 47.75077568 -221 45 C-222.39168325 43.7661365 -223.78823108 42.53775421 -225.1875 41.3125 C-230.44548619 36.61217901 -235.44520307 31.66787621 -240.4375 26.6875 C-241.23115967 25.89835205 -242.02481934 25.1092041 -242.8425293 24.29614258 C-243.59445557 23.54228271 -244.34638184 22.78842285 -245.12109375 22.01171875 C-245.7958374 21.33584717 -246.47058105 20.65997559 -247.16577148 19.96362305 C-252 14.78836683 -252 14.78836683 -252 10 C-252.66 10 -253.32 10 -254 10 C-254.33 9.01 -254.66 8.02 -255 7 C-251.93286756 8.36242426 -249.88159707 9.89699705 -247.5625 12.3125 C-247.00691406 12.88613281 -246.45132813 13.45976562 -245.87890625 14.05078125 C-244.94884766 15.01564453 -244.94884766 15.01564453 -244 16 C-234.61405281 25.47677894 -224.73109455 33.72014966 -213.96826172 41.55810547 C-212.15378137 42.88734399 -210.35815219 44.23802189 -208.56640625 45.59765625 C-185.66602696 62.76114335 -155.68213821 77.21072994 -126.56640625 77.1328125 C-125.77024399 77.13376923 -124.97408173 77.13472595 -124.15379333 77.13571167 C-122.47712118 77.13638934 -120.80044635 77.13456397 -119.1237793 77.13037109 C-116.57399526 77.12502411 -114.02438793 77.13032648 -111.47460938 77.13671875 C-109.83854128 77.13605776 -108.2024733 77.13477616 -106.56640625 77.1328125 C-105.81202774 77.13483673 -105.05764923 77.13686096 -104.28041077 77.13894653 C-97.82239158 77.11070756 -91.99355558 76.54726112 -86 74 C-83.67251306 73.31320058 -81.34013344 72.64238957 -79 72 C-79.66 71.34 -80.32 70.68 -81 70 C-81.99 70.495 -81.99 70.495 -83 71 C-83 70.01 -83 69.02 -83 68 C-83.66 67.67 -84.32 67.34 -85 67 C-84.46375 66.78988281 -83.9275 66.57976562 -83.375 66.36328125 C-74.77454923 62.5581476 -68.09527772 56.5825691 -60.95019531 50.60742188 C-58.20921998 48.34821036 -55.39487626 46.20630358 -52.5625 44.0625 C-45.16901479 38.4184073 -37.99269128 32.5200955 -30.85888672 26.55224609 C-29.28909453 25.2414057 -27.71002168 23.94169125 -26.12890625 22.64453125 C-21.57112444 18.79385893 -18.31556651 14.94437216 -15.2890625 9.78515625 C-14 8 -14 8 -11 7 C-9.81480735 4.56723614 -9 2.71982714 -9 0 C-5.35959446 -1.21346851 -3.64040554 -1.21346851 0 0 Z " fill="#D3D5DB" transform="translate(264,122)"/>
<path d="M0 0 C3.71157642 0.8343854 5.26464273 2.86831339 7.83203125 5.62890625 C11.52121395 9.55505835 15.29043388 13.15549212 19.36743164 16.67651367 C23.22238795 20.06179068 26.90942986 23.61054081 30.58203125 27.19140625 C31.36513672 27.92875 32.14824219 28.66609375 32.95507812 29.42578125 C33.68919922 30.14507812 34.42332031 30.864375 35.1796875 31.60546875 C35.84621338 32.24693848 36.51273926 32.8884082 37.19946289 33.54931641 C38.51953125 35.56640625 38.51953125 35.56640625 38.43554688 38.08007812 C37.40902417 40.86635403 36.31941198 42.24255575 34.203125 44.30859375 C33.17928711 45.31986328 33.17928711 45.31986328 32.13476562 46.3515625 C31.41611328 47.04121094 30.69746094 47.73085937 29.95703125 48.44140625 C29.26544922 49.12332031 28.57386719 49.80523437 27.86132812 50.5078125 C24.43376537 53.86190467 20.93974045 57.10178 17.30859375 60.234375 C13.24393069 63.74333606 9.68976241 67.62759575 6.109375 71.625 C2.60907472 74.24890534 0.83035677 74.11734198 -3.48046875 73.56640625 C-5.92852491 71.72129166 -7.76661168 70.0804258 -9.82421875 67.87109375 C-10.39700562 67.28603058 -10.96979248 66.70096741 -11.55993652 66.09817505 C-13.38402616 64.22844278 -15.18252537 62.3362621 -16.98046875 60.44140625 C-18.78330331 58.57330415 -20.59111888 56.71018075 -22.40100098 54.84890747 C-23.52270295 53.69192304 -24.63952545 52.53017887 -25.75036621 51.36276245 C-28.49387983 48.49905325 -31.23691781 45.9634063 -34.37695312 43.53564453 C-36.81045861 41.45469472 -37.40916727 40.81670004 -38.31713867 37.62939453 C-37.08318427 33.11197641 -34.4228889 30.74308307 -31.09375 27.55859375 C-30.43972702 26.91068878 -29.78570404 26.26278381 -29.11186218 25.59524536 C-27.01922177 23.52951888 -24.90642045 21.48581291 -22.79296875 19.44140625 C-21.38865864 18.0586262 -19.98564818 16.67452493 -18.58398438 15.2890625 C-3.96187732 0.90468065 -3.96187732 0.90468065 0 0 Z " fill="#DCDDE1" transform="translate(175.48046875,84.43359375)"/>
<path d="M0 0 C0.33 0.66 0.66 1.32 1 2 C-1.06404071 7.18656383 -4.28487379 11.00653782 -7.9375 15.125 C-8.51161621 15.77807129 -9.08573242 16.43114258 -9.67724609 17.10400391 C-17.59146025 26.02133657 -25.82905388 34.31710465 -35.18359375 41.7421875 C-37.6497703 43.71923333 -40.04622439 45.75700137 -42.43164062 47.83007812 C-50.52239013 54.83265708 -59.10494027 61.12313371 -67.77392578 67.38671875 C-69.72159623 68.79823513 -71.65799802 70.2232118 -73.58984375 71.65625 C-86.95012739 81.49166775 -101.2319146 90.44042538 -116 98 C-116.96808594 98.50917969 -117.93617188 99.01835937 -118.93359375 99.54296875 C-132.74441333 106.66829605 -145.01355311 110.36868452 -160.5625 110.125 C-162.21862305 110.11146484 -162.21862305 110.11146484 -163.90820312 110.09765625 C-166.6057017 110.07430128 -169.30273077 110.04155054 -172 110 C-172 109.67 -172 109.34 -172 109 C-170.88625 108.97421875 -169.7725 108.9484375 -168.625 108.921875 C-141.71055543 108.03383495 -122.79008082 97.9243447 -103.4765625 79.41357422 C-102.18119186 78.17346245 -100.87286 76.94691888 -99.5625 75.72265625 C-89.51679204 66.08953987 -78.96689404 53.61898165 -73 41 C-72.34 41.33 -71.68 41.66 -71 42 C-71.495 43.093125 -71.99 44.18625 -72.5 45.3125 C-74.18839906 48.79966245 -74.18839906 48.79966245 -74 52 C-75.04932994 55.35785582 -75.96834033 55.98227058 -79.125 57.75 C-80.07375 58.1625 -81.0225 58.575 -82 59 C-82 59.66 -82 60.32 -82 61 C-82.66 61 -83.32 61 -84 61 C-84.33 61.99 -84.66 62.98 -85 64 C-86.29944744 65.69321939 -87.62926214 67.36395804 -89 69 C-88.67 69.66 -88.34 70.32 -88 71 C-87.1646875 70.5359375 -87.1646875 70.5359375 -86.3125 70.0625 C-83.87459567 68.94238179 -81.63775814 68.43962636 -79 68 C-79 67.34 -79 66.68 -79 66 C-78.360625 65.71125 -77.72125 65.4225 -77.0625 65.125 C-74.84793921 64.17176549 -74.84793921 64.17176549 -74 62 C-72.68 62 -71.36 62 -70 62 C-70 61.01 -70 60.02 -70 59 C-68.68 58.34 -67.36 57.68 -66 57 C-66 57.66 -66 58.32 -66 59 C-59.54572662 54.06965228 -53.23561284 48.96851419 -46.9440918 43.83349609 C-43.26198995 40.82968752 -39.55766104 37.86264212 -35.8125 34.9375 C-27.03101957 27.91818956 -18.96656747 20.04358298 -11 12.125 C-10.47237061 11.60204346 -9.94474121 11.07908691 -9.40112305 10.5402832 C-6.05474739 7.17998885 -2.98946221 3.68187442 0 0 Z " fill="#888A93" transform="translate(338,130)"/>
<path d="M0 0 C3.06713244 1.36242426 5.11840293 2.89699705 7.4375 5.3125 C7.99308594 5.88613281 8.54867188 6.45976562 9.12109375 7.05078125 C10.05115234 8.01564453 10.05115234 8.01564453 11 9 C20.38594719 18.47677894 30.26890545 26.72014966 41.03173828 34.55810547 C42.84621863 35.88734399 44.64184781 37.23802189 46.43359375 38.59765625 C60.97599122 49.49803103 77.04898059 57.56651725 94 64 C90.26840331 65.24386556 87.81984796 64.77811718 84 64 C83.67 63.34 83.34 62.68 83 62 C80.64400765 61.53248212 80.64400765 61.53248212 77.9375 61.375 C77.01839844 61.30023438 76.09929687 61.22546875 75.15234375 61.1484375 C74.44207031 61.09945312 73.73179688 61.05046875 73 61 C73 64.40567036 74.96599605 66.40099496 77 69 C78.32 69 79.64 69 81 69 C81.33 69.99 81.66 70.98 82 72 C82.495 70.515 82.495 70.515 83 69 C85.4375 69.75 85.4375 69.75 88 71 C88.5625 72.875 88.5625 72.875 89 75 C90.97901574 77.22977996 90.97901574 77.22977996 93 79 C92.67 79.33 92.34 79.66 92 80 C96.46726453 83.31442207 100.62007164 83.66009167 106 84 C105.34 84.99 104.68 85.98 104 87 C104.61875 87.103125 105.2375 87.20625 105.875 87.3125 C108 88 108 88 110 91 C110.78375 90.814375 111.5675 90.62875 112.375 90.4375 C115 90 115 90 117 91 C117.165 91.9075 117.33 92.815 117.5 93.75 C119.80435374 98.74276644 124.09399038 99.95432071 129 102 C128.67 100.68 128.34 99.36 128 98 C128.66 98 129.32 98 130 98 C130 98.66 130 99.32 130 100 C130.99 100 131.98 100 133 100 C133.33 99.34 133.66 98.68 134 98 C134.38218767 99.65614657 134.71395102 101.32457024 135 103 C134.67 103.33 134.34 103.66 134 104 C134.99 104.66 135.98 105.32 137 106 C130.36811428 105.56994598 125.72560818 103.74972111 119.9375 100.5625 C119.10750488 100.11438965 118.27750977 99.6662793 117.42236328 99.20458984 C109.62085957 94.9226741 102.27485295 90.11276591 95 85 C93.61868365 84.04138697 92.23716684 83.08306273 90.85546875 82.125 C77.59784168 72.88768169 64.67466234 63.24525706 52.10351562 53.09350586 C48.90721301 50.51349787 45.69012909 47.9898698 42.375 45.5625 C39.28887396 43.2808769 36.68680416 40.75077568 34 38 C32.60831675 36.7661365 31.21176892 35.53775421 29.8125 34.3125 C24.55451381 29.61217901 19.55479693 24.66787621 14.5625 19.6875 C13.76884033 18.89835205 12.97518066 18.1092041 12.1574707 17.29614258 C11.40554443 16.54228271 10.65361816 15.78842285 9.87890625 15.01171875 C9.2041626 14.33584717 8.52941895 13.65997559 7.83422852 12.96362305 C3 7.78836683 3 7.78836683 3 3 C2.34 3 1.68 3 1 3 C0.67 2.01 0.34 1.02 0 0 Z " fill="#BCBEC3" transform="translate(9,129)"/>
<path d="M0 0 C1.5017981 -0.01522705 1.5017981 -0.01522705 3.03393555 -0.03076172 C10.04019872 0.05091379 16.21408439 1.2910596 22.875 3.4375 C20.7605862 3.98502189 18.72991614 4.45710593 16.5625 4.75 C11.56959209 6.02725551 7.87877805 8.27094713 4.5625 12.125 C1.07500195 15.12587042 -1.43129443 15.03429602 -5.91796875 15.1015625 C-6.64628906 15.21242188 -7.37460938 15.32328125 -8.125 15.4375 C-8.785 16.4275 -9.445 17.4175 -10.125 18.4375 C-12.11672182 19.12850553 -14.11661804 19.79652703 -16.125 20.4375 C-16.455 21.0975 -16.785 21.7575 -17.125 22.4375 C-21.28348804 21.35267703 -25.16095282 20.04183941 -29.125 18.375 C-33.19130173 16.70246917 -36.75470232 15.81752589 -41.125 15.4375 C-30.83421005 3.37243592 -15.0736208 0.10850144 0 0 Z " fill="#666976" transform="translate(211.125,38.5625)"/>
<path d="M0 0 C4.03321763 1.21934486 7.54269479 2.55954927 11 5 C11 5.66 11 6.32 11 7 C11.96550781 7.37511719 12.93101563 7.75023437 13.92578125 8.13671875 C18.67911104 10.17488352 22.87025135 12.99006775 27.1875 15.8125 C34.27395516 20.35746535 41.32410221 24.51277751 49 28 C50.2059264 28.57771348 51.41164305 29.15586491 52.6171875 29.734375 C70.09727292 37.93756545 89.10980433 42.41131694 108.4375 42.3125 C109.52844971 42.30976074 110.61939941 42.30702148 111.7434082 42.30419922 C120.77231204 42.18698447 128.55768772 40.94516104 137.08203125 37.8984375 C140 37 140 37 144 37 C144.33 37.66 144.66 38.32 145 39 C145.99 39 146.98 39 148 39 C148 39.66 148 40.32 148 41 C146.88625 41.474375 145.7725 41.94875 144.625 42.4375 C142.73289006 43.25306463 140.84287291 44.07856355 139 45 C138.34 44.67 137.68 44.34 137 44 C136.67 44.66 136.34 45.32 136 46 C131.02433848 46.9877539 126.05483012 47.19608546 120.99609375 47.2734375 C120.24394592 47.28596558 119.4917981 47.29849365 118.71685791 47.31140137 C101.89936216 47.53725572 86.14417131 47.30666512 70 42 C68.91501221 41.65509521 68.91501221 41.65509521 67.80810547 41.30322266 C42.56404797 33.10514101 19.92644511 18.2840928 0 1 C0 0.67 0 0.34 0 0 Z " fill="#F6F7FA" transform="translate(37,153)"/>
<path d="M0 0 C9.01263586 0.08638309 17.74925086 4.66522729 25.25 9.375 C24.59 9.705 23.93 10.035 23.25 10.375 C21.26171875 9.52734375 21.26171875 9.52734375 18.9375 8.3125 C15.28796992 6.5474054 15.28796992 6.5474054 11.3125 7 C9.14989906 8.34435685 9.14989906 8.34435685 7.25 10.375 C5.93 10.375 4.61 10.375 3.25 10.375 C2.981875 10.973125 2.71375 11.57125 2.4375 12.1875 C1.26506533 14.34724808 0.05630718 15.73290256 -1.75 17.375 C-2.74 17.045 -3.73 16.715 -4.75 16.375 C-3.76 15.385 -2.77 14.395 -1.75 13.375 C-3.76059813 12.08708423 -3.76059813 12.08708423 -6.125 13.0625 C-8.83893906 14.24653247 -8.83893906 14.24653247 -10.8125 16.4375 C-13.76124783 19.38624783 -16.02839781 19.32154799 -20.125 19.625 C-24.70787747 20.57318154 -26.40388626 22.19211132 -29.75 25.375 C-33.79420651 23.59554913 -37.21078487 20.97970327 -40.75 18.375 C-37.75 18.375 -37.75 18.375 -35.75 19.375 C-35.42 18.385 -35.09 17.395 -34.75 16.375 C-33.326875 16.25125 -33.326875 16.25125 -31.875 16.125 C-30.84375 15.8775 -29.8125 15.63 -28.75 15.375 C-28.45480469 14.70855469 -28.15960938 14.04210937 -27.85546875 13.35546875 C-27.49066406 12.70191406 -27.12585938 12.04835938 -26.75 11.375 C-24.54296875 10.94140625 -24.54296875 10.94140625 -21.9375 10.9375 C-17.58769656 10.69301338 -17.58769656 10.69301338 -14.0625 8.0625 C-13.299375 7.175625 -12.53625 6.28875 -11.75 5.375 C-9.48051024 3.89617119 -7.13845335 2.66109027 -4.75 1.375 C-3.75 0.375 -3.75 0.375 0 0 Z " fill="#A0A1AD" transform="translate(229.75,41.625)"/>
<path d="M0 0 C0.33 0 0.66 0 1 0 C1.03738281 0.71285156 1.07476562 1.42570312 1.11328125 2.16015625 C1.53294256 8.75831523 1.53294256 8.75831523 3.6875 14.9375 C5 18 5 18 4.1875 20.4375 C3.795625 20.953125 3.40375 21.46875 3 22 C2.34 22 1.68 22 1 22 C0.773125 22.5775 0.54625 23.155 0.3125 23.75 C-1.44969744 26.77090989 -2.96940001 28.22116957 -6 30 C-8.73613023 29.94223142 -11.2884066 29.44452351 -14 29 C-14.66 29.66 -15.32 30.32 -16 31 C-15.01 31.99 -14.02 32.98 -13 34 C-13.99 34 -14.98 34 -16 34 C-16 34.66 -16 35.32 -16 36 C-16.66 36 -17.32 36 -18 36 C-21.49084364 27.49106862 -20.30859486 20.33056919 -17 12 C-16.34 12 -15.68 12 -15 12 C-13.61061923 10.03852126 -12.2739589 8.03833424 -11 6 C-8.36 6.33 -5.72 6.66 -3 7 C-3 5.68 -3 4.36 -3 3 C-2.01 3 -1.02 3 0 3 C0 2.01 0 1.02 0 0 Z " fill="#676A76" transform="translate(98,115)"/>
<path d="M0 0 C0.495 0.99 0.495 0.99 1 2 C-1.06404071 7.18656383 -4.28487379 11.00653782 -7.9375 15.125 C-8.51161621 15.77807129 -9.08573242 16.43114258 -9.67724609 17.10400391 C-17.58110932 26.00967367 -25.80867979 34.29196618 -35.14453125 41.71484375 C-37.78551448 43.8283529 -40.36918652 45.99165933 -42.94091797 48.18798828 C-44.59621943 49.60044181 -46.25981572 51.00249416 -47.92578125 52.40234375 C-49.82267038 53.99643209 -51.68803712 55.60982706 -53.54296875 57.25390625 C-57.19488107 60.36526012 -59.64104532 62.40308423 -64.5625 62.4375 C-65.696875 62.293125 -66.83125 62.14875 -68 62 C-63.94733775 57.7814393 -59.59169212 54.07188286 -55.0625 50.375 C-54.31178223 49.75818359 -53.56106445 49.14136719 -52.78759766 48.50585938 C-48.76068055 45.20932702 -44.69706115 41.97285538 -40.56958008 38.8034668 C-25.90341664 27.52229022 -11.69329074 14.35277564 0 0 Z " fill="#656770" transform="translate(338,130)"/>
<path d="M0 0 C3.06713244 1.36242426 5.11840293 2.89699705 7.4375 5.3125 C7.99308594 5.88613281 8.54867188 6.45976562 9.12109375 7.05078125 C10.05115234 8.01564453 10.05115234 8.01564453 11 9 C19.87174761 17.95760323 29.1517455 25.79498071 39.30078125 33.23828125 C40.53500902 34.15730525 41.76812203 35.07782866 43 36 C43.5986084 36.43747559 44.1972168 36.87495117 44.81396484 37.32568359 C46.48046875 38.60546875 46.48046875 38.60546875 49 41 C49 42.32 49 43.64 49 45 C48.34 45 47.68 45 47 45 C46.505 45.99 46.505 45.99 46 47 C41.16449299 44.4400257 37.80715117 41.98422797 34 38 C32.60989876 36.76435445 31.2131 35.53623242 29.8125 34.3125 C24.55451381 29.61217901 19.55479693 24.66787621 14.5625 19.6875 C13.76884033 18.89835205 12.97518066 18.1092041 12.1574707 17.29614258 C11.40554443 16.54228271 10.65361816 15.78842285 9.87890625 15.01171875 C9.2041626 14.33584717 8.52941895 13.65997559 7.83422852 12.96362305 C3 7.78836683 3 7.78836683 3 3 C2.34 3 1.68 3 1 3 C0.67 2.01 0.34 1.02 0 0 Z " fill="#9596A0" transform="translate(9,129)"/>
<path d="M0 0 C7.42141028 4.20060161 14.8150529 8.40163385 22 13 C21.01 13.495 21.01 13.495 20 14 C19.34 13.67 18.68 13.34 18 13 C17.67 13.66 17.34 14.32 17 15 C17.66 15.33 18.32 15.66 19 16 C18.34 17.32 17.68 18.64 17 20 C18.2375 20.680625 18.2375 20.680625 19.5 21.375 C20.325 21.91125 21.15 22.4475 22 23 C22 23.66 22 24.32 22 25 C22.66 25.33 23.32 25.66 24 26 C20.09199597 25.39453459 17.72264347 23.50976114 14.625 21.125 C13.05878906 19.92423828 13.05878906 19.92423828 11.4609375 18.69921875 C10.3063691 17.80066334 9.15277118 16.90085994 8 16 C7.36481445 15.5045166 6.72962891 15.0090332 6.07519531 14.49853516 C2.03914073 11.34617882 -1.98423692 8.17815569 -6 5 C-3.92446352 4.4465236 -2.15634036 4 0 4 C-0.33 3.01 -0.66 2.02 -1 1 C-0.67 0.67 -0.34 0.34 0 0 Z " fill="#A8A9B0" transform="translate(58,170)"/>
<path d="M0 0 C0.99 1.32 1.98 2.64 3 4 C4.258125 4.0825 5.51625 4.165 6.8125 4.25 C9.47545439 4.46987697 10.67153535 4.71642801 12.71484375 6.48046875 C19.48527596 15.11147775 22.1877221 24.10090311 21 35 C20.27210861 38.76463575 19.45418033 42.44459579 18 46 C17.01 46.495 17.01 46.495 16 47 C16.01047363 46.35450195 16.02094727 45.70900391 16.03173828 45.04394531 C16.07337272 42.11266998 16.09934975 39.18145696 16.125 36.25 C16.14175781 35.23421875 16.15851563 34.2184375 16.17578125 33.171875 C16.18222656 32.1921875 16.18867188 31.2125 16.1953125 30.203125 C16.20578613 29.30239258 16.21625977 28.40166016 16.22705078 27.47363281 C15.98426048 24.82852384 15.26140929 23.30688546 14 21 C13.61709538 19.00889599 13.27395385 17.00899487 13 15 C13.66 15 14.32 15 15 15 C14.38125 13.865625 13.7625 12.73125 13.125 11.5625 C12.77695312 10.92441406 12.42890625 10.28632812 12.0703125 9.62890625 C11.08589976 7.83381685 11.08589976 7.83381685 9 7 C8.67 7.66 8.34 8.32 8 9 C6.35 8.67 4.7 8.34 3 8 C3.33 8.99 3.66 9.98 4 11 C2.0625 14.1875 2.0625 14.1875 0 17 C-0.66 16.67 -1.32 16.34 -2 16 C-1.34 10.72 -0.68 5.44 0 0 Z " fill="#3B3C46" transform="translate(252,114)"/>
<path d="M0 0 C0.66 0.33 1.32 0.66 2 1 C1.505 2.093125 1.01 3.18625 0.5 4.3125 C-1.18839906 7.79966245 -1.18839906 7.79966245 -1 11 C-2.04932994 14.35785582 -2.96834033 14.98227058 -6.125 16.75 C-7.07375 17.1625 -8.0225 17.575 -9 18 C-9 18.66 -9 19.32 -9 20 C-9.66 20 -10.32 20 -11 20 C-11.33 20.99 -11.66 21.98 -12 23 C-13.29944744 24.69321939 -14.62926214 26.36395804 -16 28 C-15.67 28.66 -15.34 29.32 -15 30 C-14.1646875 29.5359375 -14.1646875 29.5359375 -13.3125 29.0625 C-10.87459567 27.94238179 -8.63775814 27.43962636 -6 27 C-6 26.34 -6 25.68 -6 25 C-5.360625 24.71125 -4.72125 24.4225 -4.0625 24.125 C-1.84793921 23.17176549 -1.84793921 23.17176549 -1 21 C0.32 21 1.64 21 3 21 C3 20.01 3 19.02 3 18 C4.32 17.34 5.64 16.68 7 16 C6.67 17.32 6.34 18.64 6 20 C7.65 20.33 9.3 20.66 11 21 C9.35 22.65 7.7 24.3 6 26 C5.67 24.68 5.34 23.36 5 22 C-0.92062453 25.09487191 -5.90318182 29.02772847 -11.03515625 33.26953125 C-14 35 -14 35 -17.37109375 34.76171875 C-18.67240234 34.38466797 -18.67240234 34.38466797 -20 34 C-20 27.44379551 -17.65173792 24.31960558 -13.375 19.5 C-8.11254142 13.4301558 -4.01386758 6.95139078 0 0 Z " fill="#9699A3" transform="translate(265,171)"/>
<path d="M0 0 C-1.14591488 3.43774463 -1.95688598 4.17413159 -5 6 C-6.32 6 -7.64 6 -9 6 C-9.268125 6.598125 -9.53625 7.19625 -9.8125 7.8125 C-10.98493467 9.97224808 -12.19369282 11.35790256 -14 13 C-14.99 12.67 -15.98 12.34 -17 12 C-16.01 11.01 -15.02 10.02 -14 9 C-16.01059813 7.71208423 -16.01059813 7.71208423 -18.375 8.6875 C-21.08893906 9.87153247 -21.08893906 9.87153247 -23.0625 12.0625 C-26.01124783 15.01124783 -28.27839781 14.94654799 -32.375 15.25 C-36.95787747 16.19818154 -38.65388626 17.81711132 -42 21 C-46.04420651 19.22054913 -49.46078487 16.60470327 -53 14 C-50 14 -50 14 -47 16 C-40.44269216 17.25565469 -36.48127078 14.20906405 -30.99609375 10.8125 C-27.13396466 8.47608814 -23.15685843 6.73067647 -19 5 C-17.865625 4.46375 -16.73125 3.9275 -15.5625 3.375 C-10.65993891 1.48278344 -5.29768412 0 0 0 Z " fill="#ACAEB7" transform="translate(242,46)"/>
<path d="M0 0 C0.495 0.99 0.495 0.99 1 2 C-1.0640957 7.18670202 -4.28500601 11.0062759 -7.9375 15.125 C-8.50726563 15.7737207 -9.07703125 16.42244141 -9.6640625 17.09082031 C-13.50104243 21.41695166 -17.43532885 25.6371464 -21.5 29.75 C-22.21917603 30.48307373 -22.21917603 30.48307373 -22.95288086 31.23095703 C-25.74814149 34.00119426 -28.54323147 36.12132145 -32 38 C-32.94921875 35.94140625 -32.94921875 35.94140625 -33 33 C-30.95141997 30.27972759 -28.3800734 28.15831246 -25.8125 25.9375 C-24.33184937 24.60581478 -22.85269781 23.27246104 -21.375 21.9375 C-20.63507813 21.27621094 -19.89515625 20.61492187 -19.1328125 19.93359375 C-16.10416184 17.18783903 -13.19568007 14.3346422 -10.3125 11.4375 C-9.40113281 10.52871094 -8.48976563 9.61992187 -7.55078125 8.68359375 C-4.8882792 5.88246219 -2.4405505 2.99462143 0 0 Z " fill="#818289" transform="translate(338,130)"/>
<path d="M0 0 C1.2065625 0.0309375 1.2065625 0.0309375 2.4375 0.0625 C2.9325 2.0425 2.9325 2.0425 3.4375 4.0625 C-13.39895056 14.48677045 -29.10077965 21.50132142 -49.125 21.1875 C-50.22908203 21.17847656 -51.33316406 21.16945312 -52.47070312 21.16015625 C-55.1682017 21.13680128 -57.86523077 21.10405054 -60.5625 21.0625 C-60.5625 20.7325 -60.5625 20.4025 -60.5625 20.0625 C-59.44875 20.03671875 -58.335 20.0109375 -57.1875 19.984375 C-36.18403129 19.29136715 -16.51030425 0.40269035 0 0 Z " fill="#83838B" transform="translate(226.5625,218.9375)"/>
<path d="M0 0 C5.65822474 3.5476171 10.99431616 7.45083056 16.25 11.5625 C16.83990723 12.02116455 17.42981445 12.4798291 18.03759766 12.95239258 C21.60580131 15.7689444 24.84802651 18.7236065 28 22 C27.34 22.66 26.68 23.32 26 24 C23.375 23.625 23.375 23.625 21 23 C21 22.34 21 21.68 21 21 C20.34 21 19.68 21 19 21 C18.44441406 20.43539062 17.88882812 19.87078125 17.31640625 19.2890625 C14.456003 16.46242455 11.33746543 14.49335853 7.9375 12.375 C6.6965527 11.59124381 5.45566517 10.80739297 4.21484375 10.0234375 C3.15394531 9.35570312 2.09304688 8.68796875 1 8 C-2 6 -2 6 -2.6875 3.875 C-2.790625 3.25625 -2.89375 2.6375 -3 2 C-2.01 1.34 -1.02 0.68 0 0 Z " fill="#F7F8F9" transform="translate(267,51)"/>
<path d="M0 0 C-2.35968744 2.09749995 -3.54616994 2.96905704 -6.75 3.1875 C-7.86375 3.0946875 -7.86375 3.0946875 -9 3 C-9.268125 3.78375 -9.53625 4.5675 -9.8125 5.375 C-11 8 -11 8 -14 10 C-14.72382467 12.05925139 -14.72382467 12.05925139 -15 14 C-21.23182639 15.03863773 -26.74692761 14.83288874 -33 14 C-25.00736428 4.62932364 -12.17962032 -0.66434293 0 0 Z " fill="#565863" transform="translate(203,40)"/>
<path d="M0 0 C4.30699749 1.46469584 7.42530107 3.64476646 11 6.4375 C11.56468994 6.87852051 12.12937988 7.31954102 12.71118164 7.77392578 C18.37121808 12.22821364 23.86699422 16.87077095 29.32763672 21.56591797 C31.03673737 23.03150297 32.75376133 24.48732573 34.47265625 25.94140625 C44.87562713 34.76178677 54.94851824 43.88567979 64.625 53.5 C65.12209473 53.99242187 65.61918945 54.48484375 66.13134766 54.9921875 C68.65091303 57.52311407 70.94543549 60.076727 73 63 C72.67 63.66 72.34 64.32 72 65 C71.6189209 64.58339111 71.2378418 64.16678223 70.84521484 63.73754883 C61.94405852 54.03988927 52.80958954 44.7785615 43 36 C42.27554688 35.34902344 41.55109375 34.69804688 40.8046875 34.02734375 C38.88711062 32.33040856 36.94621518 30.66399565 35 29 C34.11957031 28.22914062 33.23914063 27.45828125 32.33203125 26.6640625 C24.71880658 20.05668528 16.76807452 13.98501041 8.62792969 8.0390625 C7.7980957 7.42804687 6.96826172 6.81703125 6.11328125 6.1875 C5.36860596 5.64480469 4.62393066 5.10210937 3.85668945 4.54296875 C2 3 2 3 0 0 Z " fill="#D8D8D9" transform="translate(266,49)"/>
<path d="M0 0 C1.0209375 0.6496875 1.0209375 0.6496875 2.0625 1.3125 C4.68129344 2.81691325 7.29918601 4.0178898 10.0859375 5.171875 C13.46412534 6.63345831 16.72016501 8.33131203 20 10 C20 10.66 20 11.32 20 12 C8.09198482 16.98962608 -4.32799718 16.22940543 -17 16 C-17 15.67 -17 15.34 -17 15 C-13.37513341 14.66520515 -9.75008583 14.33241184 -6.125 14 C-5.09246094 13.90460938 -4.05992187 13.80921875 -2.99609375 13.7109375 C-1.51689453 13.57558594 -1.51689453 13.57558594 -0.0078125 13.4375 C0.90339355 13.35371094 1.81459961 13.26992187 2.75341797 13.18359375 C5 13 5 13 7 13 C7 11.35 7 9.7 7 8 C4.03 7.505 4.03 7.505 1 7 C0.67 4.69 0.34 2.38 0 0 Z " fill="#91929C" transform="translate(154,180)"/>
<path d="M0 0 C9.53212073 3.27395028 18.78249392 6.92356494 28 11 C24.26840331 12.24386556 21.81984796 11.77811718 18 11 C17.67 10.34 17.34 9.68 17 9 C14.64400765 8.53248212 14.64400765 8.53248212 11.9375 8.375 C11.01839844 8.30023438 10.09929687 8.22546875 9.15234375 8.1484375 C8.44207031 8.09945312 7.73179688 8.05046875 7 8 C7 11.40567036 8.96599605 13.40099496 11 16 C12.32 16 13.64 16 15 16 C15 16.99 15 17.98 15 19 C17.43750025 21.68767578 17.43750025 21.68767578 20 24 C16.07840153 23.37441167 13.44889774 21.46819561 10.25 19.1875 C9.26515625 18.50042969 8.2803125 17.81335938 7.265625 17.10546875 C6.51796875 16.41066406 5.7703125 15.71585938 5 15 C5 13.68 5 12.36 5 11 C2.525 10.01 2.525 10.01 0 9 C0 6 0 3 0 0 Z " fill="#B6B7BE" transform="translate(75,182)"/>
<path d="M0 0 C2 2 2 2 2.1953125 5.4765625 C2.18201493 6.85950968 2.15816232 8.24238654 2.125 9.625 C2.11597656 10.33140625 2.10695313 11.0378125 2.09765625 11.765625 C2.07407603 13.51056098 2.03820461 15.25532295 2 17 C1.67 17 1.34 17 1 17 C0.67 14.36 0.34 11.72 0 9 C-0.99 9 -1.98 9 -3 9 C-2.67 10.32 -2.34 11.64 -2 13 C-5.47823115 14.15941038 -7.45895578 13.70820884 -11 13 C-12.32 14.98 -13.64 16.96 -15 19 C-15.33 18.34 -15.66 17.68 -16 17 C-11.52140401 10.31851737 -6.0989888 5.20704182 0 0 Z " fill="#2F313A" transform="translate(98,109)"/>
<path d="M0 0 C0 2.125 0 2.125 -1 5 C-3.46512544 7.30039152 -6.21011374 9.11772923 -9 11 C-9.99 11.78375 -10.98 12.5675 -12 13.375 C-15.98593906 15.53405033 -18.51904516 15.30903137 -23 15 C-21.72369757 12.44739513 -20.5929136 12.14687749 -18.0625 10.875 C-13.25876793 8.31557155 -9.28366497 5.11184563 -5.1640625 1.57421875 C-3 0 -3 0 0 0 Z " fill="#878890" transform="translate(270,193)"/>
<path d="M0 0 C3.06713244 1.36242426 5.11840293 2.89699705 7.4375 5.3125 C7.99308594 5.88613281 8.54867188 6.45976562 9.12109375 7.05078125 C10.05115234 8.01564453 10.05115234 8.01564453 11 9 C14.50205169 12.56003268 18.10739002 15.96450906 21.8125 19.3125 C22.78832031 20.19550781 23.76414062 21.07851562 24.76953125 21.98828125 C25.50558594 22.65214844 26.24164063 23.31601563 27 24 C26.01 24 25.02 24 24 24 C23 23 22 22 21 21 C18.89667109 20.28552357 18.89667109 20.28552357 17 20 C17 19.01 17 18.02 17 17 C16.27425781 17.09796875 15.54851563 17.1959375 14.80078125 17.296875 C10.87142894 16.88037462 9.74576522 15.18585328 7.1875 12.25 C6.39730469 11.36828125 5.60710938 10.4865625 4.79296875 9.578125 C3 7 3 7 3 3 C2.34 3 1.68 3 1 3 C0.67 2.01 0.34 1.02 0 0 Z " fill="#828389" transform="translate(9,129)"/>
<path d="M0 0 C0.98871094 0.36480469 1.97742188 0.72960937 2.99609375 1.10546875 C3.98738281 1.46253906 4.97867188 1.81960937 6 2.1875 C8.43359375 3.29296875 8.43359375 3.29296875 9.43359375 5.29296875 C8.11359375 4.96296875 6.79359375 4.63296875 5.43359375 4.29296875 C5.10359375 4.95296875 4.77359375 5.61296875 4.43359375 6.29296875 C5.09359375 6.62296875 5.75359375 6.95296875 6.43359375 7.29296875 C5.77359375 8.61296875 5.11359375 9.93296875 4.43359375 11.29296875 C5.67109375 11.97359375 5.67109375 11.97359375 6.93359375 12.66796875 C7.75859375 13.20421875 8.58359375 13.74046875 9.43359375 14.29296875 C9.43359375 14.95296875 9.43359375 15.61296875 9.43359375 16.29296875 C10.09359375 16.62296875 10.75359375 16.95296875 11.43359375 17.29296875 C7.42624158 16.69186592 4.87890004 14.62694847 1.68359375 12.23046875 C0.69875 11.49699219 -0.28609375 10.76351562 -1.30078125 10.0078125 C-2.0484375 9.44191406 -2.79609375 8.87601563 -3.56640625 8.29296875 C-2.90640625 6.97296875 -2.24640625 5.65296875 -1.56640625 4.29296875 C-2.55640625 2.97296875 -3.54640625 1.65296875 -4.56640625 0.29296875 C-2.56640625 -0.70703125 -2.56640625 -0.70703125 0 0 Z " fill="#AEAFB7" transform="translate(70.56640625,178.70703125)"/>
<path d="M0 0 C1.32 0 2.64 0 4 0 C4 0.99 4 1.98 4 3 C4.763125 3.103125 5.52625 3.20625 6.3125 3.3125 C9.29123061 4.07450085 9.9368354 4.85087021 12 7 C12.763125 7.28875 13.52625 7.5775 14.3125 7.875 C17.85052048 9.35603183 20.13034339 11.4640244 23 14 C21 14 19 14 17 14 C17.99 15.485 17.99 15.485 19 17 C15.4684866 16.41953062 13.81849497 15.18493336 11.328125 12.65625 C10.33232422 11.65271484 10.33232422 11.65271484 9.31640625 10.62890625 C8.63449219 9.92636719 7.95257812 9.22382813 7.25 8.5 C6.55261719 7.79746094 5.85523438 7.09492188 5.13671875 6.37109375 C0 1.1539567 0 1.1539567 0 0 Z " fill="#91919A" transform="translate(22,146)"/>
<path d="M0 0 C-2.35968744 2.09749995 -3.54616994 2.96905704 -6.75 3.1875 C-7.86375 3.0946875 -7.86375 3.0946875 -9 3 C-9.66 4.65 -10.32 6.3 -11 8 C-14.73486879 8.5745952 -18.21293268 9 -22 9 C-22.33 10.32 -22.66 11.64 -23 13 C-23.99 12.67 -24.98 12.34 -26 12 C-25.67 11.34 -25.34 10.68 -25 10 C-25.66 9.67 -26.32 9.34 -27 9 C-18.13210634 3.27937549 -10.69915606 -0.58359033 0 0 Z " fill="#51545F" transform="translate(203,40)"/>
<path d="M0 0 C2 1 2 1 4 3 C5.98821313 3.39764263 7.98944339 3.73775349 10 4 C8.84826645 6.46800047 7.95216435 8.04783565 6 10 C2.5935135 10 0.04846 9.94152751 -2.5703125 7.58984375 C-3.78785994 6.1183507 -4.90251403 4.56308608 -6 3 C-4.03533587 1.93224776 -2.03144641 0.93446535 0 0 Z " fill="#C4C6CD" transform="translate(173,147)"/>
<path d="M0 0 C0.99 0.33 1.98 0.66 3 1 C2.43152344 1.59425781 1.86304687 2.18851562 1.27734375 2.80078125 C-7.04055035 11.58751292 -7.04055035 11.58751292 -13 22 C-12.66235685 25.03878833 -11.70642252 26.35779739 -10 29 C-10 29.99 -10 30.98 -10 32 C-9.34 32 -8.68 32 -8 32 C-8 32.66 -8 33.32 -8 34 C-12.14925924 32.61691359 -12.97972737 30.83155154 -15 27 C-15.56571719 22.1738817 -15.61141849 19.31726122 -12.734375 15.33203125 C-11.75913387 14.14255251 -10.76371097 12.96936862 -9.75 11.8125 C-9.25886719 11.22275391 -8.76773437 10.63300781 -8.26171875 10.02539062 C-7.30267238 8.87581371 -6.33611681 7.73245019 -5.36132812 6.59619141 C-3.52159847 4.4390622 -1.75863516 2.22341731 0 0 Z " fill="#C4C5C7" transform="translate(20,100)"/>
<path d="M0 0 C4.89736282 2.54214253 8.41541941 6.11768604 12.25 10 C12.88679688 10.6290625 13.52359375 11.258125 14.1796875 11.90625 C14.78554688 12.5146875 15.39140625 13.123125 16.015625 13.75 C16.56508789 14.30171875 17.11455078 14.8534375 17.68066406 15.421875 C19 17 19 17 20 20 C19.01 20.33 18.02 20.66 17 21 C15 18 15 18 14 16 C12.02 16.33 10.04 16.66 8 17 C7 14 7 14 8 11 C8 10.34 8 9.68 8 9 C5.43981482 6.78578579 2.81699062 4.87799375 0 3 C0 2.01 0 1.02 0 0 Z " fill="#EDEEF1" transform="translate(314,90)"/>
<path d="M0 0 C-2.30904474 0.96742586 -4.62172693 1.92391841 -6.9375 2.875 C-7.57751953 3.14441406 -8.21753906 3.41382813 -8.87695312 3.69140625 C-18.1625426 7.47955718 -26.56174474 8.28173275 -36.5625 8.125 C-37.66658203 8.11597656 -38.77066406 8.10695312 -39.90820312 8.09765625 C-42.6057017 8.07430128 -45.30273077 8.04155054 -48 8 C-48 7.67 -48 7.34 -48 7 C-46.88625 6.97421875 -45.7725 6.9484375 -44.625 6.921875 C-31.67899429 6.48929453 -20.30184553 4.14191634 -8 0 C-4.58541882 -0.87349751 -3.40572237 -1.13524079 0 0 Z " fill="#A8A9AC" transform="translate(214,232)"/>
<path d="M0 0 C0.33 0.66 0.66 1.32 1 2 C-1.03401566 7.06668162 -4.13767808 10.82591281 -7.6875 14.875 C-8.19861328 15.46796875 -8.70972656 16.0609375 -9.23632812 16.671875 C-10.48536912 18.11936176 -11.74191954 19.56036293 -13 21 C-13.99 19.68 -14.98 18.36 -16 17 C-15.26394531 16.27554688 -14.52789062 15.55109375 -13.76953125 14.8046875 C-6.56983689 7.69064086 -6.56983689 7.69064086 0 0 Z " fill="#919197" transform="translate(338,130)"/>
<path d="M0 0 C0.99 0 1.98 0 3 0 C3.37743309 8.00996896 3.07378757 15.48473039 0 23 C-0.66 23.33 -1.32 23.66 -2 24 C-2.05787784 20.37506666 -2.0935542 16.75025143 -2.125 13.125 C-2.14175781 12.09246094 -2.15851563 11.05992187 -2.17578125 9.99609375 C-2.18222656 9.00996094 -2.18867188 8.02382812 -2.1953125 7.0078125 C-2.20578613 6.09660645 -2.21625977 5.18540039 -2.22705078 4.24658203 C-2 2 -2 2 0 0 Z " fill="#6E717B" transform="translate(270,137)"/>
<path d="M0 0 C-2.1734742 0.56178782 -4.27681517 1.04152228 -6.5 1.375 C-9.04361136 1.82613197 -9.04361136 1.82613197 -10.828125 3.46484375 C-13.33852026 5.23927781 -15.23690007 5.67210133 -18.25 6.1875 C-19.14203125 6.34605469 -20.0340625 6.50460938 -20.953125 6.66796875 C-21.62859375 6.77753906 -22.3040625 6.88710938 -23 7 C-21.48052501 3.63251488 -20.47899158 2.39159663 -17 1 C-17 0.34 -17 -0.32 -17 -1 C-10.72532201 -2.0748291 -6.09339169 -1.88341198 0 0 Z " fill="#70737F" transform="translate(234,42)"/>
<path d="M0 0 C2.475 0.495 2.475 0.495 5 1 C3.59522496 4.17580286 1.92588784 6.3309531 -0.51953125 8.78515625 C-1.21240234 9.48060547 -1.90527344 10.17605469 -2.61914062 10.89257812 C-3.34294922 11.60865234 -4.06675781 12.32472656 -4.8125 13.0625 C-5.88081055 14.14241211 -5.88081055 14.14241211 -6.97070312 15.24414062 C-10.42316037 18.68382282 -13.60117749 21.77898353 -18 24 C-16.6284197 21.04582705 -15.13179822 18.47288594 -13 16 C-12.01 15.67 -11.02 15.34 -10 15 C-7.33932271 12.54399019 -5.03619404 10.0465352 -2.8125 7.1875 C-2.214375 6.465625 -1.61625 5.74375 -1 5 C-0.34 5 0.32 5 1 5 C0.67 3.35 0.34 1.7 0 0 Z " fill="#EFF0F5" transform="translate(241,196)"/>
<path d="M0 0 C0.495 0.99 0.495 0.99 1 2 C-10.90801518 6.98962608 -23.32799718 6.22940543 -36 6 C-36 5.67 -36 5.34 -36 5 C-35.03960815 4.91697632 -35.03960815 4.91697632 -34.05981445 4.83227539 C-31.1437846 4.57855835 -28.22814766 4.32057051 -25.3125 4.0625 C-23.80139648 3.93198242 -23.80139648 3.93198242 -22.25976562 3.79882812 C-21.28330078 3.71181641 -20.30683594 3.62480469 -19.30078125 3.53515625 C-18.40528564 3.456604 -17.50979004 3.37805176 -16.5871582 3.29711914 C-13.20755615 2.90899272 -10.05942192 2.52971096 -7 1 C-4.67085177 0.63858045 -2.33746522 0.30300475 0 0 Z " fill="#7C7E87" transform="translate(173,190)"/>
<path d="M0 0 C0.66 0.33 1.32 0.66 2 1 C1.505 2.093125 1.01 3.18625 0.5 4.3125 C-1.18839906 7.79966245 -1.18839906 7.79966245 -1 11 C-1.5625 13 -1.5625 13 -3 15 C-5.28442177 16.245089 -7.54743423 17.09164231 -10 18 C-9.37726757 14.31478891 -7.75436891 11.98932641 -5.5625 9 C-3.42828235 6.07714661 -1.51609556 3.29122252 0 0 Z " fill="#A7AAB2" transform="translate(265,171)"/>
<path d="M0 0 C-3.625 4.875 -3.625 4.875 -7 6 C-7.33 6.66 -7.66 7.32 -8 8 C-15.57142857 6.14285714 -15.57142857 6.14285714 -18 3 C-10.25 2 -10.25 2 -8 2 C-4.77208445 -0.1519437 -3.71599191 -0.20086443 0 0 Z " fill="#7E808C" transform="translate(202,53)"/>
<path d="M0 0 C3.67457661 0.02930284 6.4349318 0.47649706 9.75 2.1875 C7.40465154 2.96928282 5.14159083 3.58960229 2.75 4.1875 C1.63625 4.5175 0.5225 4.8475 -0.625 5.1875 C-3.83940533 6.0742325 -6.96261053 6.66450622 -10.25 7.1875 C-11.24 7.5175 -12.23 7.8475 -13.25 8.1875 C-12.11871217 4.7936365 -11.74830647 4.62309394 -8.75 3.0625 C-3.0809417 0.02550448 -3.0809417 0.02550448 0 0 Z " fill="#878A96" transform="translate(230.25,41.8125)"/>
<path d="M0 0 C0.33 0.66 0.66 1.32 1 2 C-2.6526799 9.02900573 -7.57797596 16.20601652 -13 22 C-13.66 22 -14.32 22 -15 22 C-14.01 18.535 -14.01 18.535 -13 15 C-12.01 15.33 -11.02 15.66 -10 16 C-10.33 13.36 -10.66 10.72 -11 8 C-8.03 8.495 -8.03 8.495 -5 9 C-4.731875 8.2575 -4.46375 7.515 -4.1875 6.75 C-3.05770579 4.13363446 -1.79106798 2.19812889 0 0 Z " fill="#E6E8ED" transform="translate(264,171)"/>
<path d="M0 0 C-0.9590625 0.3403125 -0.9590625 0.3403125 -1.9375 0.6875 C-5.37622369 2.16123872 -8.50455086 3.97189021 -11.71875 5.87890625 C-14.14920068 7.07332294 -16.3343292 7.58231567 -19 8 C-18.67 6.68 -18.34 5.36 -18 4 C-16.576875 3.87625 -16.576875 3.87625 -15.125 3.75 C-14.09375 3.5025 -13.0625 3.255 -12 3 C-11.67 2.34 -11.34 1.68 -11 1 C-10.67 0.34 -10.34 -0.32 -10 -1 C-5.97563531 -2.22480664 -3.55285761 -2.32302228 0 0 Z " fill="#9294A1" transform="translate(213,54)"/>
<path d="M0 0 C1.14127623 1.14127623 2.28223736 2.28286879 3.421875 3.42578125 C4.57305686 4.57411365 5.73012787 5.71655111 6.890625 6.85546875 C7.52484375 7.48066406 8.1590625 8.10585937 8.8125 8.75 C9.41707031 9.34296875 10.02164063 9.9359375 10.64453125 10.546875 C12 12 12 12 12 13 C8.6875 13.25 8.6875 13.25 5 13 C3.0625 11.1875 3.0625 11.1875 2 9 C2 8.01 2 7.02 2 6 C0.35 5.67 -1.3 5.34 -3 5 C-2.01 3.35 -1.02 1.7 0 0 Z " fill="#B9BCC4" transform="translate(102,133)"/>
<path d="M0 0 C4.10398686 1.36437898 6.51178008 3.14596837 9.5390625 6.2109375 C10.36664063 7.04367188 11.19421875 7.87640625 12.046875 8.734375 C12.89765625 9.60578125 13.7484375 10.4771875 14.625 11.375 C15.48351562 12.23867187 16.34203125 13.10234375 17.2265625 13.9921875 C20.71847396 17.52774785 24.09986942 20.95359999 27 25 C26.67 25.66 26.34 26.32 26 27 C25.60321045 26.56768066 25.2064209 26.13536133 24.79760742 25.68994141 C17.4366894 17.69286845 10.07613714 9.86987794 1.87890625 2.72265625 C1.25886719 2.15417969 0.63882812 1.58570312 0 1 C0 0.67 0 0.34 0 0 Z " fill="#CBCCCE" transform="translate(312,87)"/>
<path d="M0 0 C1.23800144 0.64192667 2.46854077 1.29843855 3.69140625 1.96875 C4.32755859 2.30261719 4.96371094 2.63648438 5.61914062 2.98046875 C7.17083732 3.79715122 8.71338196 4.6311834 10.25390625 5.46875 C9.26390625 5.96375 9.26390625 5.96375 8.25390625 6.46875 C6.23046875 5.7265625 6.23046875 5.7265625 3.87890625 4.59375 C-3.15603738 1.22921174 -8.19051029 0.95022218 -15.74609375 3.46875 C-16.73609375 3.13875 -17.72609375 2.80875 -18.74609375 2.46875 C-17.56899199 1.78389079 -16.3786243 1.12182172 -15.18359375 0.46875 C-14.19166016 -0.088125 -14.19166016 -0.088125 -13.1796875 -0.65625 C-8.51263451 -2.33429153 -4.4512518 -2.06058209 0 0 Z " fill="#A4A5AD" transform="translate(244.74609375,45.53125)"/>
<path d="M0 0 C2.31 0 4.62 0 7 0 C3.57933564 5.05663427 -0.91002391 7.83507897 -6 11 C-6.625 8.625 -6.625 8.625 -7 6 C-6.34 5.34 -5.68 4.68 -5 4 C-4.01 4 -3.02 4 -2 4 C-1.34 2.68 -0.68 1.36 0 0 Z " fill="#EBECEE" transform="translate(153,60)"/>
<path d="M0 0 C0.99 0.33 1.98 0.66 3 1 C1.54144353 4.68646141 -0.30229045 6.16143971 -3.625 8.25 C-4.44226563 8.77078125 -5.25953125 9.2915625 -6.1015625 9.828125 C-7.04128906 10.40820312 -7.04128906 10.40820312 -8 11 C-8.66 10.67 -9.32 10.34 -10 10 C-9.67 8.68 -9.34 7.36 -9 6 C-8.34 6 -7.68 6 -7 6 C-6.7525 5.360625 -6.505 4.72125 -6.25 4.0625 C-5 2 -5 2 -2.9375 1.3125 C-2.298125 1.209375 -1.65875 1.10625 -1 1 C-0.67 0.67 -0.34 0.34 0 0 Z " fill="#DFE0E5" transform="translate(218,219)"/>
<path d="M0 0 C0.33 0.99 0.66 1.98 1 3 C0.67 3.33 0.34 3.66 0 4 C1.65 4.33 3.3 4.66 5 5 C3.35 6.65 1.7 8.3 0 10 C-0.33 8.68 -0.66 7.36 -1 6 C-4.85658398 8.15078722 -8.54319097 10.23455278 -12 13 C-12.66 12.67 -13.32 12.34 -14 12 C-11.9413783 8.91206745 -11.1446688 8.52161393 -8 7 C-7.67 6.34 -7.34 5.68 -7 5 C-5.68 5 -4.36 5 -3 5 C-3 4.01 -3 3.02 -3 2 C-2.01 1.34 -1.02 0.68 0 0 Z " fill="#A7AAB5" transform="translate(271,187)"/>
<path d="M0 0 C0.84304687 0.15597656 1.68609375 0.31195313 2.5546875 0.47265625 C3.65039062 0.66730469 4.74609375 0.86195313 5.875 1.0625 C6.96554688 1.25972656 8.05609375 1.45695313 9.1796875 1.66015625 C11.94653283 2.25631899 11.94653283 2.25631899 14 1 C14 1.66 14 2.32 14 3 C16.64 3 19.28 3 22 3 C22 3.66 22 4.32 22 5 C24.31 5 26.62 5 29 5 C29 5.66 29 6.32 29 7 C19.13595767 5.92369243 9.62656867 4.47257757 0 2 C0 1.34 0 0.68 0 0 Z " fill="#C3C4C9" transform="translate(108,189)"/>
<path d="M0 0 C4.03321763 1.21934486 7.54269479 2.55954927 11 5 C11 5.66 11 6.32 11 7 C12.670625 7.680625 12.670625 7.680625 14.375 8.375 C18 10 18 10 20 12 C18.02 12.99 18.02 12.99 16 14 C13.32941592 11.85900482 10.66421025 9.71141958 8 7.5625 C7.236875 6.95083984 6.47375 6.33917969 5.6875 5.70898438 C4.965625 5.12568359 4.24375 4.54238281 3.5 3.94140625 C2.8296875 3.40201416 2.159375 2.86262207 1.46875 2.30688477 C0.9840625 1.87561279 0.499375 1.44434082 0 1 C0 0.67 0 0.34 0 0 Z " fill="#EFF0F4" transform="translate(37,153)"/>
<path d="M0 0 C0.515625 0.2475 1.03125 0.495 1.5625 0.75 C1.2325 1.74 0.9025 2.73 0.5625 3.75 C-1.4175 4.08 -3.3975 4.41 -5.4375 4.75 C-5.1075 6.4 -4.7775 8.05 -4.4375 9.75 C-6.7475 9.42 -9.0575 9.09 -11.4375 8.75 C-10.51142708 5.04570832 -9.24870807 3.32629659 -6.0625 1.375 C-2.4375 -0.25 -2.4375 -0.25 0 0 Z " fill="#CECFD5" transform="translate(245.4375,142.25)"/>
<path d="M0 0 C2 1 2 1 2 1 Z M-4 2 C-3.01 2.33 -2.02 2.66 -1 3 C-2.70618318 4.97558052 -3.92032688 5.96855008 -6.375 6.9375 C-9.41145178 8.16654 -11.52477145 9.87837553 -14 12 C-18.04420651 10.22054913 -21.46078487 7.60470327 -25 5 C-22 5 -22 5 -19 7 C-13.22328722 7.79288215 -10.29429516 6.31518983 -5.796875 2.99609375 C-5.20390625 2.66738281 -4.6109375 2.33867188 -4 2 Z " fill="#ACADB6" transform="translate(214,55)"/>
<path d="M0 0 C0.99 0 1.98 0 3 0 C3.268125 0.78375 3.53625 1.5675 3.8125 2.375 C4.84814432 5.28114923 4.84814432 5.28114923 8 7 C6.68 7.99 5.36 8.98 4 10 C4.99 10.99 5.98 11.98 7 13 C6.01 13 5.02 13 4 13 C4 13.66 4 14.32 4 15 C3.34 15 2.68 15 2 15 C-0.10428384 9.87080814 -0.21755666 5.4389165 0 0 Z " fill="#9497A2" transform="translate(78,136)"/>
<path d="M0 0 C2 1 2 1 3 3 C2.72057545 4.67654729 2.39171753 6.34608154 2 8 C-1.09417233 8.6514047 -3.84846376 9 -7 9 C-6.82374165 6.62051228 -6.30280227 5.29774151 -4.59765625 3.62109375 C-3.09350908 2.37884514 -1.54870149 1.18623944 0 0 Z " fill="#E5E6E9" transform="translate(228,153)"/>
<path d="M0 0 C0.99 0.33 1.98 0.66 3 1 C2.66156193 4.04594267 1.76208715 5.29909045 -0.1875 7.75 C-3 10 -3 10 -6.3125 10.3125 C-7.6428125 10.1578125 -7.6428125 10.1578125 -9 10 C-8.06409496 8.8944811 -7.12620142 7.79064547 -6.1875 6.6875 C-5.66542969 6.07261719 -5.14335937 5.45773438 -4.60546875 4.82421875 C-3.12827531 3.14575321 -1.59960869 1.56117966 0 0 Z " fill="#7F7F86" transform="translate(321,148)"/>
<path d="M0 0 C0.99 0.33 1.98 0.66 3 1 C1.9889696 6.92174947 -1.3052934 9.28302009 -5.80859375 12.77734375 C-6.89333984 13.38255859 -6.89333984 13.38255859 -8 14 C-8.99 13.67 -9.98 13.34 -11 13 C-10.67 12.34 -10.34 11.68 -10 11 C-9.34 11 -8.68 11 -8 11 C-8 10.01 -8 9.02 -8 8 C-6.865625 7.4225 -5.73125 6.845 -4.5625 6.25 C-1.62689703 4.64507365 -1.62689703 4.64507365 -0.0625 1.75 C-0.041875 1.1725 -0.02125 0.595 0 0 Z " fill="#D3D4DA" transform="translate(99,102)"/>
<path d="M0 0 C-3.01802003 2.48291009 -5.89683437 3.91340355 -9.5625 5.25 C-10.51253906 5.60578125 -11.46257812 5.9615625 -12.44140625 6.328125 C-15 7 -15 7 -18 6 C-11.82554279 1.09546662 -7.9201007 -0.75429531 0 0 Z " fill="#77787E" transform="translate(224,226)"/>
<path d="M0 0 C3.02516035 1.18068309 4.6863232 3.07597717 6.921875 5.41015625 C8.12070313 6.64958984 8.12070313 6.64958984 9.34375 7.9140625 C9.94703125 8.55214844 10.5503125 9.19023438 11.171875 9.84765625 C10.20302128 11.53261923 9.20200777 13.19944381 8.171875 14.84765625 C7.841875 14.84765625 7.511875 14.84765625 7.171875 14.84765625 C6.181875 11.87765625 5.191875 8.90765625 4.171875 5.84765625 C3.181875 6.34265625 3.181875 6.34265625 2.171875 6.84765625 C1.511875 5.52765625 0.851875 4.20765625 0.171875 2.84765625 C-1.148125 2.84765625 -2.468125 2.84765625 -3.828125 2.84765625 C-3.828125 2.18765625 -3.828125 1.52765625 -3.828125 0.84765625 C-1.828125 -0.15234375 -1.828125 -0.15234375 0 0 Z " fill="#F7F8F9" transform="translate(178.828125,87.15234375)"/>
<path d="M0 0 C4.50884026 2.31883213 6.93906776 5.06451569 10 9 C7.36 9 4.72 9 2 9 C1.67 7.35 1.34 5.7 1 4 C0.34 4 -0.32 4 -1 4 C-0.67 2.68 -0.34 1.36 0 0 Z " fill="#2B2C33" transform="translate(252,110)"/>
<path d="M0 0 C3.875 2.625 3.875 2.625 5 6 C5.12781786 8.67394964 5.04391871 11.32095857 5 14 C4.62875 13.0409375 4.62875 13.0409375 4.25 12.0625 C3.18437567 9.81258459 3.18437567 9.81258459 0.875 9.25 C0.25625 9.1675 -0.3625 9.085 -1 9 C-0.979375 8.05125 -0.95875 7.1025 -0.9375 6.125 C-0.77448174 3.09333717 -0.77448174 3.09333717 -2 1 C-1.34 0.67 -0.68 0.34 0 0 Z " fill="#4A4D58" transform="translate(267,128)"/>
<path d="M0 0 C0.33 0.66 0.66 1.32 1 2 C1.99 2 2.98 2 4 2 C4 2.66 4 3.32 4 4 C-2.625 7 -2.625 7 -6 7 C-5.34 6.67 -4.68 6.34 -4 6 C-4 5.34 -4 4.68 -4 4 C-4.66 4 -5.32 4 -6 4 C-6.33 3.01 -6.66 2.02 -7 1 C-4 0 -4 0 0 0 Z " fill="#EDEFF0" transform="translate(181,190)"/>
<path d="M0 0 C0.66 0 1.32 0 2 0 C1.67 0.99 1.34 1.98 1 3 C0.34 3 -0.32 3 -1 3 C-0.67 2.01 -0.34 1.02 0 0 Z M-3.19921875 2.71875 C-2.11060547 2.85796875 -2.11060547 2.85796875 -1 3 C-1.99 4.485 -1.99 4.485 -3 6 C-4.32 6 -5.64 6 -7 6 C-7.268125 6.598125 -7.53625 7.19625 -7.8125 7.8125 C-8.98493467 9.97224808 -10.19369282 11.35790256 -12 13 C-12.99 12.67 -13.98 12.34 -15 12 C-13.62035577 10.48509654 -12.22059683 8.98849387 -10.8125 7.5 C-10.03519531 6.6646875 -9.25789062 5.829375 -8.45703125 4.96875 C-6 3 -6 3 -3.19921875 2.71875 Z " fill="#B4B5BE" transform="translate(240,46)"/>
<path d="M0 0 C1.5625 1.625 1.5625 1.625 3 4 C2.6875 7.25 2.6875 7.25 2 10 C1.38125 9.814375 0.7625 9.62875 0.125 9.4375 C-2.04160178 8.76313824 -2.04160178 8.76313824 -4 10 C-4.33 9.01 -4.66 8.02 -5 7 C-4.00390625 5.17578125 -4.00390625 5.17578125 -2.5625 3.3125 C-2.08941406 2.68988281 -1.61632812 2.06726563 -1.12890625 1.42578125 C-0.75636719 0.95527344 -0.38382813 0.48476562 0 0 Z " fill="#8C8F99" transform="translate(250,130)"/>
<path d="M0 0 C3.16115776 1.36983503 3.9927092 1.9890638 6 5 C6.55697768 9.25391699 5.4569763 11.38297059 3 14.8125 C2.443125 15.60269531 1.88625 16.39289063 1.3125 17.20703125 C0.879375 17.79871094 0.44625 18.39039063 0 19 C-0.33 18.34 -0.66 17.68 -1 17 C0.01553817 13.9533855 1.20762558 11.68856164 3 9 C2.65262237 5.61306808 1.64599285 2.96278714 0 0 Z " fill="#BDBEC1" transform="translate(339,115)"/>
<path d="M0 0 C0.99 0.33 1.98 0.66 3 1 C2.03900391 1.85271484 2.03900391 1.85271484 1.05859375 2.72265625 C-4.11530342 7.34138114 -9.16792647 12.02392428 -14 17 C-14 12.36547518 -11.11410448 10.22555664 -8 7 C-2.64164256 1.71228004 -2.64164256 1.71228004 0 0 Z " fill="#C1C2C4" transform="translate(41,80)"/>
<path d="M0 0 C1.32 0 2.64 0 4 0 C3.8125 1.8125 3.8125 1.8125 3 4 C0.6875 5.8125 0.6875 5.8125 -2 7 C-4.3125 6.6875 -4.3125 6.6875 -6 6 C-4 4 -2 2 0 0 Z " fill="#7A7A81" transform="translate(243,210)"/>
<path d="M0 0 C-0.33 1.65 -0.66 3.3 -1 5 C-1.99 4.67 -2.98 4.34 -4 4 C-5.90801574 5.20129367 -5.90801574 5.20129367 -7.6875 6.9375 C-8.62142578 7.78634766 -8.62142578 7.78634766 -9.57421875 8.65234375 C-10.27998047 9.31943359 -10.27998047 9.31943359 -11 10 C-10.41861767 6.77788109 -9.49498087 5.06332259 -7.1875 2.75 C-6.68605469 2.22921875 -6.18460938 1.7084375 -5.66796875 1.171875 C-4 0 -4 0 0 0 Z " fill="#E4E5E7" transform="translate(160,101)"/>
<path d="M0 0 C-0.33 1.32 -0.66 2.64 -1 4 C-5.1196377 5.29243536 -8.66831683 6.26252625 -13 6 C-9.43216717 1.83752837 -5.4396369 0 0 0 Z " fill="#9699A3" transform="translate(226,47)"/>
<path d="M0 0 C0.66 0 1.32 0 2 0 C0.98379995 3.04860014 0.22608429 3.86666922 -2 6 C-2.33 6.66 -2.66 7.32 -3 8 C-5.64 8 -8.28 8 -11 8 C-9.66566859 5.33133717 -8.11620897 4.82425634 -5.5 3.4375 C-2.55848713 1.98363365 -2.55848713 1.98363365 0 0 Z " fill="#666871" transform="translate(258,200)"/>
<path d="M0 0 C0.61875 0.495 1.2375 0.99 1.875 1.5 C3.83880904 3.19222773 3.83880904 3.19222773 6 3 C6.33 4.65 6.66 6.3 7 8 C7.66 8 8.32 8 9 8 C8.67 8.66 8.34 9.32 8 10 C4.20866644 9.45838092 2.33890436 8.00716275 0 5 C-0.25 2.25 -0.25 2.25 0 0 Z " fill="#C7C8CC" transform="translate(138,120)"/>
<path d="M0 0 C0.78375 0.04125 1.5675 0.0825 2.375 0.125 C2.705 0.785 3.035 1.445 3.375 2.125 C2.2921875 2.49625 2.2921875 2.49625 1.1875 2.875 C-1.88413113 4.24016939 -4.0354752 6.0002617 -6.625 8.125 C-7.94612926 8.8155358 -9.27772918 9.486969 -10.625 10.125 C-9.66867001 8.83184939 -8.70986149 7.54053147 -7.75 6.25 C-7.21632812 5.53070313 -6.68265625 4.81140625 -6.1328125 4.0703125 C-3.09203733 0.14723987 -3.09203733 0.14723987 0 0 Z " fill="#E9E9EB" transform="translate(175.625,84.875)"/>
<path d="M0 0 C0.680625 0.12375 1.36125 0.2475 2.0625 0.375 C-2.32691399 6.10562382 -2.32691399 6.10562382 -5.0625 7.3125 C-6.9375 7.375 -6.9375 7.375 -9.9375 6.375 C-3.86310175 0.49316193 -3.86310175 0.49316193 0 0 Z " fill="#B1B4BD" transform="translate(219.9375,53.625)"/>
<path d="M0 0 C1.0209375 0.6496875 1.0209375 0.6496875 2.0625 1.3125 C4.31208775 2.60481637 6.36569473 3.5989457 8.75 4.5625 C12 6 12 6 13 8 C11.948125 7.649375 10.89625 7.29875 9.8125 6.9375 C6.2045319 6.05029473 4.47367511 5.94737118 1 7 C0.67 4.69 0.34 2.38 0 0 Z " fill="#B1B3BC" transform="translate(154,180)"/>
<path d="M0 0 C3.53600465 1.91135386 5.78972846 3.62642766 8 7 C5.69 7 3.38 7 1 7 C1 6.34 1 5.68 1 5 C0.34 5 -0.32 5 -1 5 C-0.67 3.35 -0.34 1.7 0 0 Z " fill="#F1F2F6" transform="translate(306,83)"/>
<path d="M0 0 C0 1.32 0 2.64 0 4 C0.99 3.67 1.98 3.34 3 3 C2.67 4.65 2.34 6.3 2 8 C-1.25543229 7.65120368 -2.01873107 6.97866739 -4.25 4.4375 C-5.11625 3.2309375 -5.11625 3.2309375 -6 2 C-2.25 0 -2.25 0 0 0 Z " fill="#E9EAEC" transform="translate(221,77)"/>
<path d="M0 0 C0.66 0.33 1.32 0.66 2 1 C0.02 2.65 -1.96 4.3 -4 6 C-3.67 6.66 -3.34 7.32 -3 8 C-3.928125 8.28875 -4.85625 8.5775 -5.8125 8.875 C-9.09791667 9.8875 -9.09791667 9.8875 -12 12 C-10.47940093 8.11985064 -8.13921469 6.26093438 -4.875 3.75 C-3.96492188 3.04359375 -3.05484375 2.3371875 -2.1171875 1.609375 C-1.41851562 1.07828125 -0.71984375 0.5471875 0 0 Z " fill="#CCCCCF" transform="translate(57,67)"/>
<path d="M0 0 C2 2 2 2 2.1953125 5.4765625 C2.18201493 6.85950968 2.15816232 8.24238654 2.125 9.625 C2.11597656 10.33140625 2.10695313 11.0378125 2.09765625 11.765625 C2.07407603 13.51056098 2.03820461 15.25532295 2 17 C1.67 17 1.34 17 1 17 C0.67 13.37 0.34 9.74 0 6 C-1.65 6 -3.3 6 -5 6 C-3.35 4.02 -1.7 2.04 0 0 Z " fill="#292A30" transform="translate(98,109)"/>
<path d="M0 0 C0.66 0 1.32 0 2 0 C2.33 0.99 2.66 1.98 3 3 C2.34 3.66 1.68 4.32 1 5 C1 4.34 1 3.68 1 3 C0.34 3 -0.32 3 -1 3 C-1.226875 3.53625 -1.45375 4.0725 -1.6875 4.625 C-3.43382056 7.78500863 -5.6402849 10.2676983 -8 13 C-8.33 12.34 -8.66 11.68 -9 11 C-7.87672229 9.54033966 -6.75131706 8.08231636 -5.625 6.625 C-4.99851562 5.81289062 -4.37203125 5.00078125 -3.7265625 4.1640625 C-2 2 -2 2 0 0 Z " fill="#D5D6DB" transform="translate(21,102)"/>
<path d="M0 0 C1.32 0.66 2.64 1.32 4 2 C4 2.66 4 3.32 4 4 C4.99 4 5.98 4 7 4 C7 5.32 7 6.64 7 8 C7.66 8.33 8.32 8.66 9 9 C4.62140745 8.49477778 2.18348776 5.82172778 -1 3 C-0.67 2.01 -0.34 1.02 0 0 Z " fill="#EBECEF" transform="translate(233,91)"/>
<path d="M0 0 C-1 2 -2 4 -3 6 C-4.65 6 -6.3 6 -8 6 C-8 4.35 -8 2.7 -8 1 C-2.25 -1.125 -2.25 -1.125 0 0 Z " fill="#5C5F6E" transform="translate(191,48)"/>
<path d="M0 0 C3.94139078 1.66751148 6.7892812 4.22710649 10 7 C9.67 7.99 9.34 8.98 9 10 C8.5875 9.525625 8.175 9.05125 7.75 8.5625 C5.817815 6.83733482 4.51807725 6.43415125 2 6 C1.855625 5.38125 1.71125 4.7625 1.5625 4.125 C1.06847775 1.96741678 1.06847775 1.96741678 0 0 Z " fill="#E9EAED" transform="translate(125,156)"/>
<path d="M0 0 C0.66 0.33 1.32 0.66 2 1 C2 2.98 2 4.96 2 7 C-1.10551666 7 -2.35261084 6.4606285 -5 5 C-5 4.34 -5 3.68 -5 3 C-2.625 1.3125 -2.625 1.3125 0 0 Z " fill="#F3F5F4" transform="translate(199,178)"/>
<path d="M0 0 C1.65 0 3.3 0 5 0 C2.33333333 2.66666667 -0.33333333 5.33333333 -3 8 C-3.99 7.67 -4.98 7.34 -6 7 C-6 6.34 -6 5.68 -6 5 C-4.68 5 -3.36 5 -2 5 C-2 4.34 -2 3.68 -2 3 C-1.34 3 -0.68 3 0 3 C0 2.01 0 1.02 0 0 Z " fill="#909097" transform="translate(301,168)"/>
<path d="M0 0 C2.4375 0.375 2.4375 0.375 5 1 C5.33 1.66 5.66 2.32 6 3 C5.67 3.66 5.34 4.32 5 5 C5.66 5.33 6.32 5.66 7 6 C4 8 4 8 1 8 C1.20625 7.4225 1.4125 6.845 1.625 6.25 C2.08661261 3.48032433 1.42944945 2.35438733 0 0 Z " fill="#C9CACF" transform="translate(112,146)"/>
<path d="M0 0 C0 2.31 0 4.62 0 7 C-1.32 6.34 -2.64 5.68 -4 5 C-3.67 4.67 -3.34 4.34 -3 4 C-4.32 2.68 -5.64 1.36 -7 0 C-3.98968256 -0.93423645 -3.13349732 -1.04449911 0 0 Z " fill="#C4C6CC" transform="translate(126,220)"/>
<path d="M0 0 C1.9375 0.8125 1.9375 0.8125 4 2 C4.33 2.99 4.66 3.98 5 5 C4.34 5 3.68 5 3 5 C2.67 5.66 2.34 6.32 2 7 C0.35 6.01 -1.3 5.02 -3 4 C-2.01 2.68 -1.02 1.36 0 0 Z " fill="#9FA2AA" transform="translate(53,169)"/>
<path d="M0 0 C1.32 1.32 2.64 2.64 4 4 C2.02 6.97 2.02 6.97 0 10 C-0.66 9.67 -1.32 9.34 -2 9 C-1.34 6.03 -0.68 3.06 0 0 Z " fill="#5D5F6A" transform="translate(252,121)"/>
<path d="M0 0 C0.66 0.33 1.32 0.66 2 1 C-3.91684902 7.70459519 -3.91684902 7.70459519 -8.4375 8.9375 C-9.283125 8.958125 -10.12875 8.97875 -11 9 C-7.56638098 5.36440339 -4.2026393 2.63886654 0 0 Z " fill="#F0F0F2" transform="translate(95,41)"/>
<path d="M0 0 C5.04969516 0.44556134 7.47618687 2.55813601 11 6 C11 6.99 11 7.98 11 9 C9 9 9 9 6.625 6.75 C5.75875 5.8425 4.8925 4.935 4 4 C3.236875 3.236875 2.47375 2.47375 1.6875 1.6875 C1.130625 1.130625 0.57375 0.57375 0 0 Z " fill="#A8A8AD" transform="translate(39,163)"/>
<path d="M0 0 C0.66 0 1.32 0 2 0 C5 5.625 5 5.625 5 9 C5.66 9 6.32 9 7 9 C7 9.66 7 10.32 7 11 C2.94089532 9.64696511 2.0786931 7.65563269 0 4 C0 2.68 0 1.36 0 0 Z " fill="#A4A5A7" transform="translate(5,123)"/>
<path d="M0 0 C0.33 0.99 0.66 1.98 1 3 C0 5 0 5 -2 7 C-1.67 7.33 -1.34 7.66 -1 8 C-0.95936168 9.66617115 -0.957279 11.33388095 -1 13 C-2.32 11.35 -3.64 9.7 -5 8 C-1.125 1.125 -1.125 1.125 0 0 Z " fill="#D8D9DD" transform="translate(11,115)"/>
<path d="M0 0 C1.98 0.66 3.96 1.32 6 2 C4.25 4.0625 4.25 4.0625 2 6 C-0.25 5.75 -0.25 5.75 -2 5 C-1.34 3.35 -0.68 1.7 0 0 Z " fill="#F1F1F3" transform="translate(163,51)"/>
<path d="M0 0 C0.66 0 1.32 0 2 0 C0.48328036 4.55015893 -3.16891053 6.50057264 -7 9 C-5.52132701 3.33175355 -5.52132701 3.33175355 -2.9375 1.6875 C-2.298125 1.460625 -1.65875 1.23375 -1 1 C-0.67 0.67 -0.34 0.34 0 0 Z " fill="#B4B7C1" transform="translate(280,180)"/>
<path d="M0 0 C4.05281712 1.22527029 7.44360764 2.69880494 11 5 C10.01 5.99 9.02 6.98 8 8 C6.66372225 6.85760183 5.33104612 5.71098945 4 4.5625 C3.2575 3.92441406 2.515 3.28632813 1.75 2.62890625 C1.1725 2.09136719 0.595 1.55382812 0 1 C0 0.67 0 0.34 0 0 Z " fill="#E7E8EE" transform="translate(37,153)"/>
<path d="M0 0 C1.9375 0.8125 1.9375 0.8125 4 2 C4.33 2.99 4.66 3.98 5 5 C1.37673261 6.2077558 0.35853631 5.54311128 -3 4 C-2.01 2.68 -1.02 1.36 0 0 Z " fill="#444652" transform="translate(91,117)"/>
<path d="M0 0 C0 0.66 0 1.32 0 2 C-2.2727675 3.49524178 -4.5679943 4.78399715 -7 6 C-7.99 5.34 -8.98 4.68 -10 4 C-6.46952808 0.10430685 -5.17399995 0 0 0 Z " fill="#D2D3D6" transform="translate(31,95)"/>
<path d="M0 0 C0.53625 0.2475 1.0725 0.495 1.625 0.75 C0.4184375 1.36875 0.4184375 1.36875 -0.8125 2 C-3.51609718 3.48452331 -3.51609718 3.48452331 -4.1875 5.9375 C-4.249375 6.535625 -4.31125 7.13375 -4.375 7.75 C-5.365 7.42 -6.355 7.09 -7.375 6.75 C-7.045 6.09 -6.715 5.43 -6.375 4.75 C-7.035 4.42 -7.695 4.09 -8.375 3.75 C-2.95961538 -0.31153846 -2.95961538 -0.31153846 0 0 Z " fill="#40414B" transform="translate(184.375,45.25)"/>
<path d="M0 0 C-2.64 1.98 -5.28 3.96 -8 6 C-8.66 5.67 -9.32 5.34 -10 5 C-10 4.01 -10 3.02 -10 2 C-4.5 -1.125 -4.5 -1.125 0 0 Z " fill="#919298" transform="translate(286,186)"/>
<path d="M0 0 C0 0.66 0 1.32 0 2 C2.31 2 4.62 2 7 2 C7 2.66 7 3.32 7 4 C5.20759337 3.88610125 3.41605165 3.75852313 1.625 3.625 C0.12839844 3.52058594 0.12839844 3.52058594 -1.3984375 3.4140625 C-4 3 -4 3 -6 1 C-4 0 -4 0 0 0 Z " fill="#ADB0B6" transform="translate(130,192)"/>
<path d="M0 0 C0.66 0.66 1.32 1.32 2 2 C0.35 3.32 -1.3 4.64 -3 6 C-3.66 5.34 -4.32 4.68 -5 4 C-5.66 3.67 -6.32 3.34 -7 3 C-4.6226839 0.6226839 -3.29714793 0.32971479 0 0 Z " fill="#8B8D92" transform="translate(315,157)"/>
<path d="M0 0 C0.99 0 1.98 0 3 0 C3.32613618 4.67461851 2.70582788 7.16674383 0 11 C-1 8 -1 8 0 5 C0 4.01 0 3.02 0 2 C0 1.34 0 0.68 0 0 Z " fill="#ADB0B9" transform="translate(266,157)"/>
<path d="M0 0 C0.33 0.66 0.66 1.32 1 2 C-1.45454545 7.72727273 -1.45454545 7.72727273 -4 9 C-4.66 8.34 -5.32 7.68 -6 7 C-4.02 4.69 -2.04 2.38 0 0 Z " fill="#999A9E" transform="translate(338,130)"/>
<path d="M0 0 C1 2 1 2 0.5 4.0625 C-1 6 -1 6 -4.625 6.75 C-5.73875 6.8325 -6.8525 6.915 -8 7 C-5.4837822 4.39391727 -2.94865641 2.10618315 0 0 Z " fill="#1B1C1E" transform="translate(125,88)"/>
<path d="M0 0 C1.32 0.33 2.64 0.66 4 1 C2.02 1.99 0.04 2.98 -2 4 C-1.34 2.68 -0.68 1.36 0 0 Z M-2 5 C-4.38573379 6.89213369 -6.07175348 8.02391783 -9 9 C-8.6875 7.0625 -8.6875 7.0625 -8 5 C-5 4 -5 4 -2 5 Z " fill="#8B8D99" transform="translate(203,53)"/>
<path d="M0 0 C-2.34534846 0.78178282 -4.60840917 1.40210229 -7 2 C-9.3347961 2.66152556 -11.66836622 3.32741333 -14 4 C-8.93059247 -1.34342956 -7.01966034 -2.65187168 0 0 Z " fill="#8F909B" transform="translate(240,44)"/>
<path d="M0 0 C1.8871875 0.0309375 1.8871875 0.0309375 3.8125 0.0625 C0.60304398 2.9128026 -1.68738548 3.49701699 -5.9375 3.75 C-6.92234375 3.81574219 -7.9071875 3.88148437 -8.921875 3.94921875 C-9.66953125 3.98660156 -10.4171875 4.02398437 -11.1875 4.0625 C-7.47611183 1.11898524 -4.747758 -0.0778321 0 0 Z " fill="#353740" transform="translate(199.1875,39.9375)"/>
<path d="M0 0 C4.10958767 1.45044271 7.43258745 3.51110752 11 6 C8 7 8 7 5.95703125 6.07421875 C4.89548828 5.38779297 4.89548828 5.38779297 3.8125 4.6875 C3.09707031 4.23761719 2.38164063 3.78773438 1.64453125 3.32421875 C1.10183594 2.88722656 0.55914062 2.45023438 0 2 C0 1.34 0 0.68 0 0 Z " fill="#B9BBBF" transform="translate(113,218)"/>
<path d="M0 0 C1.32 0.33 2.64 0.66 4 1 C0.04 4.465 0.04 4.465 -4 8 C-4 4.09161134 -2.49432124 2.88405893 0 0 Z " fill="#E4E6EB" transform="translate(228,212)"/>
<path d="M0 0 C1.32 0 2.64 0 4 0 C4 1.32 4 2.64 4 4 C1.69 4 -0.62 4 -3 4 C-1.75 2 -1.75 2 0 0 Z " fill="#73767E" transform="translate(220,222)"/>
<path d="M0 0 C4.1424367 1.38081223 5.32203099 3.59825558 8 7 C4.0521912 7 2.81491174 5.66275435 0 3 C0 2.01 0 1.02 0 0 Z " fill="#202023" transform="translate(139,164)"/>
<path d="M0 0 C2 1 2 1 3 3 C2.0625 5.125 2.0625 5.125 1 7 C0.34 7 -0.32 7 -1 7 C-1.33 6.01 -1.66 5.02 -2 4 C-2.66 3.67 -3.32 3.34 -4 3 C-2.68 2.01 -1.36 1.02 0 0 Z " fill="#DEDFE3" transform="translate(228,153)"/>
<path d="M0 0 C2.1875 0.3125 2.1875 0.3125 4 1 C3.67 1.99 3.34 2.98 3 4 C1.35 4.33 -0.3 4.66 -2 5 C-2.33 4.34 -2.66 3.68 -3 3 C-1.75 1.4375 -1.75 1.4375 0 0 Z " fill="#B3B7BE" transform="translate(243,142)"/>
<path d="M0 0 C0.33 0.66 0.66 1.32 1 2 C0.21654285 3.17219543 -0.57702836 4.33763668 -1.375 5.5 C-1.81585938 6.1496875 -2.25671875 6.799375 -2.7109375 7.46875 C-3.13632813 7.9740625 -3.56171875 8.479375 -4 9 C-4.66 9 -5.32 9 -6 9 C-5.34 6.69 -4.68 4.38 -4 2 C-3.01 2.33 -2.02 2.66 -1 3 C-0.67 2.01 -0.34 1.02 0 0 Z " fill="#EEF1F3" transform="translate(255,184)"/>
<path d="M0 0 C1.32 0.99 2.64 1.98 4 3 C2.68 4.32 1.36 5.64 0 7 C-0.99 6.67 -1.98 6.34 -3 6 C-2.01 5.67 -1.02 5.34 0 5 C-0.66 3.68 -1.32 2.36 -2 1 C-1.34 0.67 -0.68 0.34 0 0 Z " fill="#E4E5E7" transform="translate(207,124)"/>
<path d="M0 0 C1.67542976 0.28604898 3.34385343 0.61781233 5 1 C5.33 1.99 5.66 2.98 6 4 C4.35 4.33 2.7 4.66 1 5 C0.34 3.68 -0.32 2.36 -1 1 C-0.67 0.67 -0.34 0.34 0 0 Z " fill="#0E0F11" transform="translate(235,99)"/>
<path d="M0 0 C3.36591866 1.44253657 5.51047079 3.33264727 8 6 C7.236875 5.835 6.47375 5.67 5.6875 5.5 C2.96403764 4.90854604 2.96403764 4.90854604 0 5 C-0.5625 3.0625 -0.5625 3.0625 -1 1 C-0.67 0.67 -0.34 0.34 0 0 Z " fill="#C8C9CF" transform="translate(94,202)"/>
<path d="M0 0 C0.99 0 1.98 0 3 0 C2.67 1.32 2.34 2.64 2 4 C1.34 4 0.68 4 0 4 C-0.33 4.66 -0.66 5.32 -1 6 C-1.66 6 -2.32 6 -3 6 C-2.42655063 3.13275314 -2.1385485 2.1385485 0 0 Z " fill="#656671" transform="translate(267,193)"/>
<path d="M0 0 C-1.32 0.99 -2.64 1.98 -4 3 C-4 2.34 -4 1.68 -4 1 C-5.32 1.33 -6.64 1.66 -8 2 C-8 1.01 -8 0.02 -8 -1 C-4.59745511 -2.2151946 -3.06748874 -1.86240388 0 0 Z " fill="#85868E" transform="translate(290,182)"/>
<path d="M0 0 C0.66 0.33 1.32 0.66 2 1 C1.01 2.485 1.01 2.485 0 4 C0 4.66 0 5.32 0 6 C-1.98 6.33 -3.96 6.66 -6 7 C-4.60667426 3.63279613 -3.0210714 2.0140476 0 0 Z " fill="#63656D" transform="translate(290,175)"/>
<path d="M0 0 C0.66 0.33 1.32 0.66 2 1 C-1.625 5.875 -1.625 5.875 -5 7 C-5 6.01 -5 5.02 -5 4 C-2.5 1.8125 -2.5 1.8125 0 0 Z " fill="#EBEBEB" transform="translate(208,169)"/>
<path d="M0 0 C1.32 0.66 2.64 1.32 4 2 C3.67 3.32 3.34 4.64 3 6 C2.01 5.67 1.02 5.34 0 5 C0 4.34 0 3.68 0 3 C-0.66 2.67 -1.32 2.34 -2 2 C-1.34 1.34 -0.68 0.68 0 0 Z " fill="#1D1E21" transform="translate(235,140)"/>
<path d="M0 0 C0.99 0.99 1.98 1.98 3 3 C2.34 4.65 1.68 6.3 1 8 C-0.5 6.625 -0.5 6.625 -2 5 C-2 4.34 -2 3.68 -2 3 C-1.34 3 -0.68 3 0 3 C0 2.01 0 1.02 0 0 Z " fill="#D8DADF" transform="translate(21,133)"/>
<path d="M0 0 C3.53600465 1.91135386 5.78972846 3.62642766 8 7 C5 7 5 7 3 6 C3 5.01 3 4.02 3 3 C2.01 2.67 1.02 2.34 0 2 C0 1.34 0 0.68 0 0 Z " fill="#25262A" transform="translate(142,129)"/>
<path d="M0 0 C1.125 1.75 1.125 1.75 2 4 C1.125 6.25 1.125 6.25 0 8 C-0.66 7.67 -1.32 7.34 -2 7 C-2.625 4.4375 -2.625 4.4375 -3 2 C-2.01 1.34 -1.02 0.68 0 0 Z " fill="#1B1B1D" transform="translate(162,59)"/>
<path d="M0 0 C3.96 1.98 3.96 1.98 8 4 C6.02 4.99 6.02 4.99 4 6 C1 5 1 5 -0.1875 2.9375 C-0.5896875 1.9784375 -0.5896875 1.9784375 -1 1 C-0.67 0.67 -0.34 0.34 0 0 Z " fill="#C9CACE" transform="translate(255,51)"/>
<path d="M0 0 C1.4391134 0.28359887 2.87625518 0.57721399 4.3125 0.875 C5.11300781 1.03742188 5.91351563 1.19984375 6.73828125 1.3671875 C9 2 9 2 12 4 C9.39517051 4.94721072 7.69325299 5.30222393 5.109375 4.17578125 C3.37417127 3.17063275 1.68359577 2.0893855 0 1 C0 0.67 0 0.34 0 0 Z " fill="#0B0C0F" transform="translate(167,186)"/>
<path d="M0 0 C1.485 0.99 1.485 0.99 3 2 C3 2.66 3 3.32 3 4 C3.99 4.33 4.98 4.66 6 5 C5.34 6.32 4.68 7.64 4 9 C0 2.25 0 2.25 0 0 Z " fill="#ECEDF1" transform="translate(267,123)"/>
<path d="M0 0 C0 2.62113708 -0.31292445 4.50935112 -1 7 C-2.32 7 -3.64 7 -5 7 C-3.70700306 4.11562221 -2.34058637 2.12780579 0 0 Z " fill="#CFD0D6" transform="translate(42,83)"/>
<path d="M0 0 C2.64 0 5.28 0 8 0 C5.37801226 2.15377564 3.35595828 3.40072174 0 4 C0 2.68 0 1.36 0 0 Z " fill="#9C9CA0" transform="translate(216,226)"/>
<path d="M0 0 C2.475 0.495 2.475 0.495 5 1 C3.25 4.875 3.25 4.875 1 6 C0.67 4.02 0.34 2.04 0 0 Z " fill="#E9E9EE" transform="translate(241,196)"/>
<path d="M0 0 C2.31 0 4.62 0 7 0 C5.35 1.65 3.7 3.3 2 5 C0 1.125 0 1.125 0 0 Z " fill="#8A8C92" transform="translate(269,192)"/>
<path d="M0 0 C0.66 0.33 1.32 0.66 2 1 C2 1.99 2 2.98 2 4 C0.02 4.99 0.02 4.99 -2 6 C-2.33 5.01 -2.66 4.02 -3 3 C-2.01 2.01 -1.02 1.02 0 0 Z " fill="#86868C" transform="translate(292,175)"/>
<path d="M0 0 C1 3 1 3 0 6 C-0.99 6 -1.98 6 -3 6 C-3.33 4.68 -3.66 3.36 -4 2 C-2.68 1.34 -1.36 0.68 0 0 Z " fill="#F0F0F1" transform="translate(216,164)"/>
<path d="M0 0 C1.32 1.32 2.64 2.64 4 4 C3.34 4.66 2.68 5.32 2 6 C-0.625 5.625 -0.625 5.625 -3 5 C-2.01 3.35 -1.02 1.7 0 0 Z " fill="#9397A1" transform="translate(102,133)"/>
<path d="M0 0 C0.99 0.33 1.98 0.66 3 1 C1.35 2.65 -0.3 4.3 -2 6 C-2.99 5.67 -3.98 5.34 -5 5 C-3.35 3.35 -1.7 1.7 0 0 Z " fill="#C3C6CD" transform="translate(230,53)"/>
<path d="M0 0 C0.99 0.66 1.98 1.32 3 2 C1.68 2.99 0.36 3.98 -1 5 C-2.32 4.34 -3.64 3.68 -5 3 C-3.35 2.01 -1.7 1.02 0 0 Z " fill="#EBEBED" transform="translate(109,30)"/>
<path d="M0 0 C0.66 0.33 1.32 0.66 2 1 C1.01 2.485 1.01 2.485 0 4 C-0.66 4 -1.32 4 -2 4 C-2.33 4.66 -2.66 5.32 -3 6 C-3.66 5.01 -4.32 4.02 -5 3 C-2.625 1.4375 -2.625 1.4375 0 0 Z M-7 4 C-5 5 -5 5 -5 5 Z " fill="#F7F8F9" transform="translate(127,21)"/>
<path d="M0 0 C0.99 1.32 1.98 2.64 3 4 C1.68 5.32 0.36 6.64 -1 8 C-2.2077558 4.37673261 -1.54311128 3.35853631 0 0 Z " fill="#7B7F88" transform="translate(100,129)"/>
<path d="M0 0 C0.66 0.33 1.32 0.66 2 1 C2.33 1.99 2.66 2.98 3 4 C1.35 4.66 -0.3 5.32 -2 6 C-1.125 1.125 -1.125 1.125 0 0 Z " fill="#F3F4F6" transform="translate(190,99)"/>
<path d="M0 0 C-1 3 -1 3 -3.0625 4.1875 C-3.701875 4.455625 -4.34125 4.72375 -5 5 C-5 3.68 -5 2.36 -5 1 C-3 0 -3 0 0 0 Z " fill="#D6D6D8" transform="translate(128,85)"/>
<path d="M0 0 C0.8353125 0.37125 0.8353125 0.37125 1.6875 0.75 C-0.67218744 2.84749995 -1.85866994 3.71905704 -5.0625 3.9375 C-6.17625 3.8446875 -6.17625 3.8446875 -7.3125 3.75 C-2.88173077 -0.31153846 -2.88173077 -0.31153846 0 0 Z " fill="#7B7E8C" transform="translate(223.3125,43.25)"/>
<path d="" fill="#FFFFFF" transform="translate(0,0)"/>
<path d="" fill="#FFFFFF" transform="translate(0,0)"/>
<path d="" fill="#FFFFFF" transform="translate(0,0)"/>
<path d="" fill="#FFFFFF" transform="translate(0,0)"/>
<path d="" fill="#FFFFFF" transform="translate(0,0)"/>
<path d="" fill="#FFFFFF" transform="translate(0,0)"/>
<path d="" fill="#FFFFFF" transform="translate(0,0)"/>
<path d="" fill="#FFFFFF" transform="translate(0,0)"/>
<path d="" fill="#FFFFFF" transform="translate(0,0)"/>
<path d="" fill="#FFFFFF" transform="translate(0,0)"/>
<path d="" fill="#FFFFFF" transform="translate(0,0)"/>
<path d="" fill="#FFFFFF" transform="translate(0,0)"/>
</svg>
